<?xml version="1.0" encoding="UTF-8" standalone="no"?>
<svg
   xmlns:dc="http://purl.org/dc/elements/1.1/"
   xmlns:cc="http://creativecommons.org/ns#"
   xmlns:rdf="http://www.w3.org/1999/02/22-rdf-syntax-ns#"
   xmlns:svg="http://www.w3.org/2000/svg"
   xmlns="http://www.w3.org/2000/svg"
   xmlns:sodipodi="http://sodipodi.sourceforge.net/DTD/sodipodi-0.dtd"
   xmlns:inkscape="http://www.inkscape.org/namespaces/inkscape"
   height="32px"
   style="enable-background:new 0 0 32 32;"
   version="1.1"
   viewBox="0 0 32 32"
   width="32px"
   x="0px"
   xml:space="preserve"
   y="0px"
   id="svg2"
   inkscape:version="0.48.3.1 r9886"
   sodipodi:docname="calendar.svg"><metadata
     id="metadata18"><rdf:RDF><cc:Work
         rdf:about=""><dc:format>image/svg+xml</dc:format><dc:type
           rdf:resource="http://purl.org/dc/dcmitype/StillImage" /><dc:title></dc:title></cc:Work></rdf:RDF></metadata><defs
     id="defs16" /><sodipodi:namedview
     pagecolor="#ffffff"
     bordercolor="#666666"
     borderopacity="1"
     objecttolerance="10"
     gridtolerance="10"
     guidetolerance="10"
     inkscape:pageopacity="0"
     inkscape:pageshadow="2"
     inkscape:window-width="1366"
     inkscape:window-height="744"
     id="namedview14"
     showgrid="false"
     inkscape:zoom="14.75"
     inkscape:cx="23.417169"
     inkscape:cy="16.452765"
     inkscape:window-x="0"
     inkscape:window-y="24"
     inkscape:window-maximized="1"
     inkscape:current-layer="svg2" /><g
     id="Layer_1" /><g
     id="calendar_x5F_alt_x5F_fill"
     style="fill:#ffffff"><g
       id="g6"
       style="fill:#ffffff"><path
         d="M26,4v2.047c0,2.211-1.789,4-4,4s-4-1.789-4-4V4h-4v2.047c0,2.211-1.789,4-4,4s-4-1.789-4-4V4H0v28    h32V4H26z M10,28H6v-4h4V28z M10,20H6v-4h4V20z M18,28h-4v-4h4V28z M18,20.008h-4v-4h4V20.008z M22,28v-4h4L22,28z M26,20h-4v-4h4    V20z"
         style="fill:#ffffff"
         id="path8" /><path
         d="M8,6V2c0-1.105,0.895-2,2-2s2,0.895,2,2v4c0,1.105-0.895,2-2,2S8,7.105,8,6z"
         style="fill:#ffffff"
         id="path10" /><path
         d="M20,6V2c0-1.105,0.895-2,2-2s2,0.895,2,2v4c0,1.105-0.895,2-2,2S20,7.105,20,6z"
         style="fill:#ffffff"
         id="path12" /></g></g></svg>