<?xml version="1.0" encoding="UTF-8" standalone="no"?>
<svg
   xmlns:dc="http://purl.org/dc/elements/1.1/"
   xmlns:cc="http://creativecommons.org/ns#"
   xmlns:rdf="http://www.w3.org/1999/02/22-rdf-syntax-ns#"
   xmlns:svg="http://www.w3.org/2000/svg"
   xmlns="http://www.w3.org/2000/svg"
   xmlns:sodipodi="http://sodipodi.sourceforge.net/DTD/sodipodi-0.dtd"
   xmlns:inkscape="http://www.inkscape.org/namespaces/inkscape"
   height="24"
   id="Layer_1"
   version="1.1"
   viewBox="0 0 24 24"
   width="24"
   x="0px"
   xml:space="preserve"
   y="0px"
   inkscape:version="0.48.3.1 r9886"
   sodipodi:docname="date.svg"><metadata
     id="metadata9"><rdf:RDF><cc:Work
         rdf:about=""><dc:format>image/svg+xml</dc:format><dc:type
           rdf:resource="http://purl.org/dc/dcmitype/StillImage" /><dc:title></dc:title></cc:Work></rdf:RDF></metadata><defs
     id="defs7" /><sodipodi:namedview
     pagecolor="#ffffff"
     bordercolor="#666666"
     borderopacity="1"
     objecttolerance="10"
     gridtolerance="10"
     guidetolerance="10"
     inkscape:pageopacity="0"
     inkscape:pageshadow="2"
     inkscape:window-width="1366"
     inkscape:window-height="744"
     id="namedview5"
     showgrid="false"
     inkscape:zoom="14.75"
     inkscape:cx="12.212341"
     inkscape:cy="9.2637024"
     inkscape:window-x="0"
     inkscape:window-y="24"
     inkscape:window-maximized="1"
     inkscape:current-layer="Layer_1" /><path
     d="m 20.620763,2.3580503 h -2.75 c 0,-0.7590001 -0.616001,-1.3750001 -1.375,-1.3750001 -0.759,0 -1.375001,0.616 -1.375001,1.3750001 H 9.6207631 c 0,-0.7590001 -0.6160002,-1.3750001 -1.3750001,-1.3750001 -0.7589999,0 -1.375,0.616 -1.375,1.3750001 H 4.1207629 c -0.7562502,0 -1.3750001,0.6187501 -1.3750001,1.3749994 V 21.608049 c 0,0.756252 0.6187499,1.375001 1.3750001,1.375001 H 20.620763 c 0.75625,0 1.375,-0.618749 1.375,-1.375001 V 3.7330497 c 0,-0.7562493 -0.61875,-1.3749994 -1.375,-1.3749994 z m -13.75,2.7499997 c 0,0.7590004 0.6160001,1.3750002 1.375,1.3750002 0.7589999,0 1.3750001,-0.6159998 1.3750001,-1.3750002 h 5.4999989 c 0,0.7590004 0.616001,1.3750002 1.375001,1.3750002 0.758999,0 1.375,-0.6159998 1.375,-1.3750002 h 1.375 V 7.8580505 H 5.4957629 V 5.10805 H 6.870763 z M 5.4957629,20.233051 v -9.625 H 19.245763 v 9.625 H 5.4957629 z"
     id="path3"
     inkscape:connector-curvature="0"
     style="fill:#ffffff" /></svg>