<?xml version="1.0" encoding="UTF-8" standalone="no"?>
<svg
   xmlns:dc="http://purl.org/dc/elements/1.1/"
   xmlns:cc="http://creativecommons.org/ns#"
   xmlns:rdf="http://www.w3.org/1999/02/22-rdf-syntax-ns#"
   xmlns:svg="http://www.w3.org/2000/svg"
   xmlns="http://www.w3.org/2000/svg"
   xmlns:sodipodi="http://sodipodi.sourceforge.net/DTD/sodipodi-0.dtd"
   xmlns:inkscape="http://www.inkscape.org/namespaces/inkscape"
   enable-background="new 0 0 56.693 56.693"
   height="32"
   id="Layer_1"
   version="1.1"
   viewBox="0 0 32 32"
   width="32"
   x="0px"
   xml:space="preserve"
   y="0px"
   inkscape:version="0.48.3.1 r9886"
   sodipodi:docname="1384460706_46-facebook.svg"><metadata
     id="metadata9"><rdf:RDF><cc:Work
         rdf:about=""><dc:format>image/svg+xml</dc:format><dc:type
           rdf:resource="http://purl.org/dc/dcmitype/StillImage" /><dc:title></dc:title></cc:Work></rdf:RDF></metadata><defs
     id="defs7" /><sodipodi:namedview
     pagecolor="#ffffff"
     bordercolor="#666666"
     borderopacity="1"
     objecttolerance="10"
     gridtolerance="10"
     guidetolerance="10"
     inkscape:pageopacity="0"
     inkscape:pageshadow="2"
     inkscape:window-width="1366"
     inkscape:window-height="744"
     id="namedview5"
     showgrid="false"
     inkscape:zoom="11.774095"
     inkscape:cx="21.384862"
     inkscape:cy="12.703092"
     inkscape:window-x="0"
     inkscape:window-y="24"
     inkscape:window-maximized="1"
     inkscape:current-layer="Layer_1" /><path
     d="m 16.095548,1.3025252 c -8.1604391,0 -14.7757938,6.6165549 -14.7757938,14.7757918 0,8.160438 6.6153547,14.774592 14.7757938,14.774592 8.160437,0 14.775791,-6.614154 14.775791,-14.774592 0,-8.1592369 -6.615954,-14.7757918 -14.775791,-14.7757918 z m 3.910409,14.7139888 h -2.558538 c 0,4.088619 0,9.124689 0,9.124689 h -3.792202 c 0,0 0,-4.984468 0,-9.124689 H 11.85152 v -3.221573 h 1.803697 V 10.70743 c 0,-1.4940802 0.709237,-3.8264058 3.827605,-3.8264058 l 2.80815,0.010805 v 3.1291678 c 0,0 -1.707691,0 -2.03891,0 -0.333017,0 -0.804043,0.166209 -0.804043,0.876647 v 1.897902 h 2.890956 l -0.333018,3.220973 z"
     id="path3"
     inkscape:connector-curvature="0" /></svg>