<?xml version="1.0" encoding="UTF-8" standalone="no"?>
<svg
   xmlns:dc="http://purl.org/dc/elements/1.1/"
   xmlns:cc="http://creativecommons.org/ns#"
   xmlns:rdf="http://www.w3.org/1999/02/22-rdf-syntax-ns#"
   xmlns:svg="http://www.w3.org/2000/svg"
   xmlns="http://www.w3.org/2000/svg"
   xmlns:sodipodi="http://sodipodi.sourceforge.net/DTD/sodipodi-0.dtd"
   xmlns:inkscape="http://www.inkscape.org/namespaces/inkscape"
   enable-background="new 0 0 32 32"
   height="32px"
   id="Layer_1"
   version="1.1"
   viewBox="0 0 32 32"
   width="32px"
   x="0px"
   xml:space="preserve"
   y="0px"
   inkscape:version="0.48.3.1 r9886"
   sodipodi:docname="1384460762_world.svg"><metadata
     id="metadata8"><rdf:RDF><cc:Work
         rdf:about=""><dc:format>image/svg+xml</dc:format><dc:type
           rdf:resource="http://purl.org/dc/dcmitype/StillImage" /><dc:title></dc:title></cc:Work></rdf:RDF></metadata><defs
     id="defs6" /><sodipodi:namedview
     pagecolor="#ffffff"
     bordercolor="#666666"
     borderopacity="1"
     objecttolerance="10"
     gridtolerance="10"
     guidetolerance="10"
     inkscape:pageopacity="0"
     inkscape:pageshadow="2"
     inkscape:window-width="1366"
     inkscape:window-height="744"
     id="namedview4"
     showgrid="false"
     inkscape:zoom="14.75"
     inkscape:cx="18.727429"
     inkscape:cy="19.569897"
     inkscape:window-x="0"
     inkscape:window-y="24"
     inkscape:window-maximized="1"
     inkscape:current-layer="Layer_1" /><path
     d="m 16.220338,1.0677967 c -8.2848377,0 -14.999999,6.7151613 -14.999999,15.0000003 0,8.284839 6.7151613,15 14.999999,15 8.284839,0 15,-6.715161 15,-15 0,-8.284839 -6.715161,-15.0000003 -15,-15.0000003 z M 29.26066,15.583926 h -5.80258 c -0.05323,-2.143548 -0.434516,-4.19129 -1.110968,-6.0658067 1.306452,-0.5448387 2.514194,-1.2696774 3.615484,-2.1261291 1.957742,2.1977415 3.181935,5.0516138 3.298064,8.1919358 z m -13.575483,13.52129 c -1.608387,-1.339354 -2.95742,-3.078387 -3.944516,-5.098064 1.266774,-0.395807 2.609032,-0.612581 3.995806,-0.657097 v 5.757097 c -0.01742,0 -0.03387,-9.68e-4 -0.05129,-0.0019 z M 16.753564,3.0303774 c 1.825161,1.5193548 3.314516,3.5545161 4.321935,5.928387 -1.38,0.4712904 -2.846129,0.7451613 -4.372258,0.7935483 V 3.0274741 c 0.01839,9.678e-4 0.03387,0.00194 0.05032,0.0029 z m 1.612258,0.1645161 C 21.03679,3.639087 23.432919,4.8865064 25.298725,6.6923128 24.285499,7.4694096 23.178402,8.1274741 21.981306,8.6258612 21.100661,6.5384419 19.864854,4.692958 18.365822,3.1948935 z M 15.736467,3.0274741 v 6.7248386 c -1.526129,-0.04936 -2.993226,-0.3222579 -4.372258,-0.7935483 1.007419,-2.3738709 2.496774,-4.4090322 4.321935,-5.928387 0.01742,-9.678e-4 0.0329,-0.00194 0.05032,-0.0029 z M 10.458403,8.6268289 C 9.2632422,8.1284419 8.1551777,7.4703773 7.1419519,6.6932806 9.0067906,4.8874741 11.403886,3.6400548 14.074854,3.1958612 c -1.5,1.4970968 -2.734839,3.3425807 -3.616451,5.4309677 z m 0.540967,1.2241938 c 1.492258,0.5177423 3.082258,0.8196773 4.737097,0.8700003 v 4.862903 H 9.950339 c 0.052258,-2.026452 0.41129,-3.962903 1.049031,-5.7329033 z m 4.737097,6.7006453 v 5.830645 c -1.526129,0.04645 -3.001935,0.296129 -4.392581,0.744194 -0.838064,-1.995484 -1.332579,-4.218387 -1.393547,-6.574839 h 5.786128 z M 14.074854,28.9407 c -2.393226,-0.397742 -4.5667731,-1.44 -6.3338699,-2.953548 0.9532258,-0.660968 1.983871,-1.220323 3.0851599,-1.645161 0.843871,1.749677 1.948065,3.302903 3.24871,4.598709 z m 2.629355,0.16742 v -5.757097 c 1.385806,0.04452 2.729032,0.26129 3.995806,0.657097 -0.988064,2.019677 -2.336129,3.758709 -3.944516,5.098064 -0.01645,0 -0.03387,9.68e-4 -0.05129,0.0019 z m 4.910322,-4.766129 c 1.100323,0.424838 2.13,0.985161 3.085162,1.645161 -1.767097,1.51258 -3.940645,2.555806 -6.333871,2.953548 1.300645,-1.295806 2.403871,-2.849032 3.248709,-4.598709 z M 21.09679,23.126507 c -1.391613,-0.448065 -2.86742,-0.697742 -4.392581,-0.744194 v -5.830645 h 5.786129 c -0.06097,2.356452 -0.556452,4.579355 -1.393548,6.574839 z m -4.392581,-7.542581 v -4.862903 c 1.653871,-0.05032 3.243871,-0.35129 4.737097,-0.8690323 0.636774,1.7700003 0.995806,3.7064513 1.049032,5.7329033 H 16.704209 z M 6.4790487,7.3919902 C 7.580339,8.2484419 8.7880809,8.9732806 10.093565,9.5181193 9.4171132,11.392636 9.0358228,13.440378 8.982597,15.583926 H 3.1800164 C 3.2961454,12.443604 4.520339,9.5897317 6.4790487,7.3919902 z M 3.1800164,16.551668 H 8.982597 c 0.06,2.472581 0.5767742,4.807742 1.454515,6.906774 -1.2261279,0.478065 -2.3690311,1.114839 -3.4238698,1.86871 C 4.7409841,23.065539 3.3067906,19.973603 3.1800164,16.551668 z m 22.2474186,8.774516 c -1.054839,-0.752903 -2.197742,-1.390645 -3.424839,-1.86871 0.87871,-2.099032 1.394516,-4.434193 1.455484,-6.906774 h 5.80258 c -0.126774,3.422903 -1.561935,6.514839 -3.833225,8.775484 z"
     id="world"
     inkscape:connector-curvature="0"
     style="fill:#1a1a1a" /></svg>