<?xml version="1.0" encoding="UTF-8" standalone="no"?>
<!-- Creator: CorelDRAW -->

<svg
   xmlns:dc="http://purl.org/dc/elements/1.1/"
   xmlns:cc="http://creativecommons.org/ns#"
   xmlns:rdf="http://www.w3.org/1999/02/22-rdf-syntax-ns#"
   xmlns:svg="http://www.w3.org/2000/svg"
   xmlns="http://www.w3.org/2000/svg"
   xmlns:xlink="http://www.w3.org/1999/xlink"
   xmlns:sodipodi="http://sodipodi.sourceforge.net/DTD/sodipodi-0.dtd"
   xmlns:inkscape="http://www.inkscape.org/namespaces/inkscape"
   xml:space="preserve"
   width="130"
   height="105"
   style="fill-rule:evenodd"
   viewBox="0 0 36688.888 29634.862"
   id="svg2"
   sodipodi:version="0.32"
   inkscape:version="0.48.3.1 r9886"
   sodipodi:docname="logo_ipb.svg"
   inkscape:output_extension="org.inkscape.output.svg.inkscape"
   version="1.1"><metadata
   id="metadata113"><rdf:RDF><cc:Work
       rdf:about=""><dc:format>image/svg+xml</dc:format><dc:type
         rdf:resource="http://purl.org/dc/dcmitype/StillImage" /><dc:title></dc:title></cc:Work></rdf:RDF></metadata><sodipodi:namedview
   inkscape:window-height="744"
   inkscape:window-width="1366"
   inkscape:pageshadow="2"
   inkscape:pageopacity="0.0"
   guidetolerance="10.0"
   gridtolerance="10.0"
   objecttolerance="10.0"
   borderopacity="1.0"
   bordercolor="#666666"
   pagecolor="#ffffff"
   id="base"
   inkscape:zoom="3.1024573"
   inkscape:cx="30.209371"
   inkscape:cy="47.554564"
   inkscape:window-x="0"
   inkscape:window-y="24"
   inkscape:current-layer="svg2"
   showgrid="false"
   inkscape:window-maximized="1" />
 <defs
   id="defs4"><linearGradient
   id="linearGradient3212"><stop
     style="stop-color:#005500;stop-opacity:1;"
     offset="0"
     id="stop3214" /><stop
     style="stop-color:#00aa00;stop-opacity:1;"
     offset="1"
     id="stop3216" /></linearGradient>
  <style
   type="text/css"
   id="style6">
   
    .str0 {stroke:#1F1A17;stroke-width:76}
    .str2 {stroke:#1F1A17;stroke-width:281}
    .str1 {stroke:#72706F;stroke-width:352}
    .str3 {stroke:#1F1A17;stroke-width:704}
    .fil3 {fill:none}
    .fil0 {fill:#BFD8FF}
    .fil1 {fill:#F4E2BA}
    .fil2 {fill:#FFF3E3}
    .fil4 {fill:#00FF00}
    .fil5 {fill:#FF9900}
    .fil6 {fill:#Ff0000}
    .fil7 {fill:#00FFFF}
    .fil8 {fill:#FFFF00}
   
  </style>
 
  
  
  
  
  
  
  
  
  
  
  
  
  
  
  
  
  
  
  
  
  
  
  
  
  
  
  
 <linearGradient
   inkscape:collect="always"
   xlink:href="#linearGradient3212"
   id="linearGradient3222"
   gradientUnits="userSpaceOnUse"
   gradientTransform="matrix(0.38746802,0,0,0.38746802,58214.736,57087.807)"
   x1="55960.086"
   y1="147769.98"
   x2="55905.457"
   y2="154556.08" /><linearGradient
   inkscape:collect="always"
   xlink:href="#linearGradient3212"
   id="linearGradient3230"
   gradientUnits="userSpaceOnUse"
   gradientTransform="matrix(0.38746802,0,0,0.38746802,60398.064,48991.298)"
   x1="55960.086"
   y1="147769.98"
   x2="55905.457"
   y2="154556.08" /><linearGradient
   inkscape:collect="always"
   xlink:href="#linearGradient3212"
   id="linearGradient3234"
   gradientUnits="userSpaceOnUse"
   gradientTransform="matrix(0.38746802,0,0,0.38746802,61307.784,66548.896)"
   x1="55960.086"
   y1="147769.98"
   x2="55905.457"
   y2="154556.08" /><linearGradient
   inkscape:collect="always"
   xlink:href="#linearGradient3212"
   id="linearGradient3238"
   gradientUnits="userSpaceOnUse"
   gradientTransform="matrix(0.38746802,0,0,0.38746802,26010.644,63819.736)"
   x1="55960.086"
   y1="147769.98"
   x2="55905.457"
   y2="154556.08" /><linearGradient
   inkscape:collect="always"
   xlink:href="#linearGradient3212"
   id="linearGradient3242"
   gradientUnits="userSpaceOnUse"
   gradientTransform="matrix(0.38746802,0,0,0.38746802,50755.031,50628.794)"
   x1="55725.301"
   y1="149530.88"
   x2="55905.457"
   y2="154556.08" /><linearGradient
   inkscape:collect="always"
   xlink:href="#linearGradient3212"
   id="linearGradient3246"
   gradientUnits="userSpaceOnUse"
   gradientTransform="matrix(0.38746802,0,0,0.38746802,51892.181,69869.374)"
   x1="55960.086"
   y1="147769.98"
   x2="55905.457"
   y2="154556.08" /><linearGradient
   inkscape:collect="always"
   xlink:href="#linearGradient3212"
   id="linearGradient3250"
   gradientUnits="userSpaceOnUse"
   gradientTransform="matrix(0.38746802,0,0,0.38746802,48355.644,65207.059)"
   x1="55960.086"
   y1="147769.98"
   x2="55905.457"
   y2="154556.08" /><linearGradient
   inkscape:collect="always"
   xlink:href="#linearGradient3212"
   id="linearGradient3254"
   gradientUnits="userSpaceOnUse"
   gradientTransform="matrix(0.38746802,0,0,0.38746802,74407.754,55541.283)"
   x1="55960.086"
   y1="147769.98"
   x2="55905.457"
   y2="154556.08" /><linearGradient
   inkscape:collect="always"
   xlink:href="#linearGradient3212"
   id="linearGradient3258"
   gradientUnits="userSpaceOnUse"
   gradientTransform="matrix(0.38746802,0,0,0.38746802,77227.886,63455.848)"
   x1="55960.086"
   y1="147769.98"
   x2="55905.457"
   y2="154556.08" /><linearGradient
   inkscape:collect="always"
   xlink:href="#linearGradient3212"
   id="linearGradient3262"
   gradientUnits="userSpaceOnUse"
   gradientTransform="matrix(0.38746802,0,0,0.38746802,69950.126,49901.018)"
   x1="55960.086"
   y1="147769.98"
   x2="55905.457"
   y2="154556.08" /><linearGradient
   inkscape:collect="always"
   xlink:href="#linearGradient3212"
   id="linearGradient3266"
   gradientUnits="userSpaceOnUse"
   gradientTransform="matrix(0.38746802,0,0,0.38746802,84414.675,59544.051)"
   x1="55960.086"
   y1="147769.98"
   x2="55905.457"
   y2="154556.08" /><linearGradient
   inkscape:collect="always"
   xlink:href="#linearGradient3212"
   id="linearGradient3270"
   gradientUnits="userSpaceOnUse"
   gradientTransform="matrix(0.38746802,0,0,0.38746802,75044.559,47808.662)"
   x1="55960.086"
   y1="147769.98"
   x2="55905.457"
   y2="154556.08" /><linearGradient
   inkscape:collect="always"
   xlink:href="#linearGradient3212"
   id="linearGradient3274"
   gradientUnits="userSpaceOnUse"
   gradientTransform="matrix(0.38746802,0,0,0.38746802,82777.179,56360.03)"
   x1="55960.086"
   y1="147769.98"
   x2="55905.457"
   y2="154556.08" /><linearGradient
   inkscape:collect="always"
   xlink:href="#linearGradient3212"
   id="linearGradient3278"
   gradientUnits="userSpaceOnUse"
   gradientTransform="matrix(0.38746802,0,0,0.38746802,86870.919,54631.563)"
   x1="55960.086"
   y1="147769.98"
   x2="55905.457"
   y2="154556.08" /><linearGradient
   inkscape:collect="always"
   xlink:href="#linearGradient3212"
   id="linearGradient3282"
   gradientUnits="userSpaceOnUse"
   gradientTransform="matrix(0.38746802,0,0,0.38746802,86598.003,51174.627)"
   x1="55960.086"
   y1="147769.98"
   x2="55905.457"
   y2="154556.08" /><linearGradient
   inkscape:collect="always"
   xlink:href="#linearGradient3212"
   id="linearGradient3290"
   gradientUnits="userSpaceOnUse"
   gradientTransform="matrix(0.38746802,0,0,0.38746802,84505.647,53630.871)"
   x1="55960.086"
   y1="147769.98"
   x2="55905.457"
   y2="154556.08" /><linearGradient
   inkscape:collect="always"
   xlink:href="#linearGradient3212"
   id="linearGradient3294"
   gradientUnits="userSpaceOnUse"
   gradientTransform="matrix(0.38746802,0,0,0.38746802,77591.775,44715.614)"
   x1="55960.086"
   y1="147769.98"
   x2="55905.457"
   y2="154556.08" /><linearGradient
   inkscape:collect="always"
   xlink:href="#linearGradient3212"
   id="linearGradient3298"
   gradientUnits="userSpaceOnUse"
   gradientTransform="matrix(0.38746802,0,0,0.38746802,84141.759,49173.243)"
   x1="55960.086"
   y1="147769.98"
   x2="55905.457"
   y2="154556.08" /><linearGradient
   inkscape:collect="always"
   xlink:href="#linearGradient3212"
   id="linearGradient3302"
   gradientUnits="userSpaceOnUse"
   gradientTransform="matrix(0.38746802,0,0,0.38746802,81321.627,48445.467)"
   x1="55960.086"
   y1="147769.98"
   x2="55905.457"
   y2="154556.08" /><linearGradient
   inkscape:collect="always"
   xlink:href="#linearGradient3212"
   id="linearGradient3306"
   gradientUnits="userSpaceOnUse"
   gradientTransform="matrix(0.38746802,0,0,0.38746802,76500.111,41895.482)"
   x1="55960.086"
   y1="147769.98"
   x2="55905.457"
   y2="154556.08" /><linearGradient
   inkscape:collect="always"
   xlink:href="#linearGradient3212"
   id="linearGradient3310"
   gradientUnits="userSpaceOnUse"
   gradientTransform="matrix(0.38746802,0,0,0.38746802,43932.13,67367.644)"
   x1="55960.086"
   y1="147769.98"
   x2="55905.457"
   y2="154556.08" /><linearGradient
   inkscape:collect="always"
   xlink:href="#linearGradient3212"
   id="linearGradient3314"
   gradientUnits="userSpaceOnUse"
   gradientTransform="matrix(0.38746802,0,0,0.38746802,46206.43,66366.952)"
   x1="55960.086"
   y1="147769.98"
   x2="55905.457"
   y2="154556.08" /><linearGradient
   inkscape:collect="always"
   xlink:href="#linearGradient3212"
   id="linearGradient3318"
   gradientUnits="userSpaceOnUse"
   gradientTransform="matrix(0.38746802,0,0,0.38746802,56258.838,68413.822)"
   x1="55960.086"
   y1="147769.98"
   x2="55905.457"
   y2="154556.08" /><linearGradient
   inkscape:collect="always"
   xlink:href="#linearGradient3212"
   id="linearGradient3326"
   gradientUnits="userSpaceOnUse"
   gradientTransform="matrix(0.38746802,0,0,0.38746802,36244.996,50401.364)"
   x1="55725.301"
   y1="149530.88"
   x2="55905.457"
   y2="154556.08" /><linearGradient
   inkscape:collect="always"
   xlink:href="#linearGradient3212"
   id="linearGradient3330"
   gradientUnits="userSpaceOnUse"
   gradientTransform="matrix(0.38746802,0,0,0.38746802,41130.84,49298.663)"
   x1="55725.301"
   y1="149530.88"
   x2="55905.457"
   y2="154556.08" /><linearGradient
   inkscape:collect="always"
   xlink:href="#linearGradient3212"
   id="linearGradient3334"
   gradientUnits="userSpaceOnUse"
   gradientTransform="matrix(0.38746802,0,0,0.38746802,61216.812,37801.741)"
   x1="55960.086"
   y1="147769.98"
   x2="55905.457"
   y2="154556.08" /><linearGradient
   inkscape:collect="always"
   xlink:href="#linearGradient3212"
   id="linearGradient3338"
   gradientUnits="userSpaceOnUse"
   gradientTransform="matrix(0.38746802,0,0,0.38746802,64218.888,38529.517)"
   x1="55960.086"
   y1="147769.98"
   x2="55905.457"
   y2="154556.08" /><linearGradient
   inkscape:collect="always"
   xlink:href="#linearGradient3212"
   id="linearGradient3346"
   gradientUnits="userSpaceOnUse"
   gradientTransform="matrix(0.38746802,0,0,0.38746802,42749.494,39894.097)"
   x1="55960.086"
   y1="147769.98"
   x2="55905.457"
   y2="154556.08" /><linearGradient
   inkscape:collect="always"
   xlink:href="#linearGradient3212"
   id="linearGradient3350"
   gradientUnits="userSpaceOnUse"
   gradientTransform="matrix(0.38746802,0,0,0.38746802,44659.906,43714.921)"
   x1="55960.086"
   y1="147769.98"
   x2="55905.457"
   y2="154556.08" /><linearGradient
   inkscape:collect="always"
   xlink:href="#linearGradient3212"
   id="linearGradient3354"
   gradientUnits="userSpaceOnUse"
   gradientTransform="matrix(0.38746802,0,0,0.38746802,39019.642,42623.257)"
   x1="55960.086"
   y1="147769.98"
   x2="55905.457"
   y2="154556.08" /><linearGradient
   inkscape:collect="always"
   xlink:href="#linearGradient3212"
   id="linearGradient3358"
   gradientUnits="userSpaceOnUse"
   gradientTransform="matrix(0.38746802,0,0,0.38746802,42031.417,43509.24)"
   x1="55725.301"
   y1="149530.88"
   x2="55905.457"
   y2="154556.08" /><linearGradient
   inkscape:collect="always"
   xlink:href="#linearGradient3212"
   id="linearGradient3362"
   gradientUnits="userSpaceOnUse"
   gradientTransform="matrix(0.38746802,0,0,0.38746802,40498.052,37128.039)"
   x1="55960.086"
   y1="147769.98"
   x2="55905.457"
   y2="154556.08" /></defs>
 
 
 <g
   id="Destaque"
   transform="translate(0,-164375.14)">
 </g>
 
 <g
   id="Regiões geoeconômicas"
   transform="translate(0,-164375.14)">
 </g>
 
 
 
 
 
 



















<path
   inkscape:label="#path4052"
   inkscape:export-ydpi="90"
   inkscape:export-xdpi="90"
   inkscape:export-filename="/home/johnatas/Empresa/NibbleLab/Projetos/2ª Igreja Frutal/mdl3.png"
   sodipodi:nodetypes="cscssccssscssccccccccccsscsscssssccscccccccsssccsccsscssscscsssssscssscssssscsccscssssssscccssscccccsscscscscccccsscsscscscscsccsssssccsscsscscssccsccccsscscccsscccscssscscccsccsccccssssssscccsccsssscsscsscssscsscsscsssscsscsscccsssssssssssscsssssssssssssssccscsccsscsssscsssssscscscssccccsssscssssccsssssssccsscsscsscssscssscssscsssssscsssssscsssssssscsscccscscsssc"
   style="fill:#0f472e;fill-opacity:1"
   d="m 17562.016,28322.852 c -91.77,-35.53 -341.927,-67.754 -628.848,-81.244 -513.439,-23.978 -577.277,-41.61 -671.145,-184.889 -59.523,-90.725 -54.256,-105.678 171.528,-487.236 128.054,-216.372 232.874,-418.152 232.874,-448.438 0,-81.377 -330.355,-559.018 -429.155,-620.426 -46.928,-29.203 -196.854,-73.359 -333.066,-98.059 -352.137,-63.954 -357.326,-66.272 -433.332,-194.959 -57.512,-97.413 -66.879,-186.333 -57.196,-543.191 12.99,-478.477 -3.534,-530.423 -225.268,-706.059 -143.52,-113.601 -1026.697,-606.062 -1121.705,-625.404 -83.927,-17.157 -35.84,105.45 207.607,529.815 304.266,530.29 410.343,824.03 410.343,1136.257 0,284.487 -20.465,305.881 -518.259,542.336 l -295.644,140.353 -1203.215,2.565 -1203.264,2.66 -304.811,190 -304.96,190.095 -639.612,12.046 -639.601,12.046 -500.458,-232.921 -500.5361,-232.921 -860.6924,-36.727 c -473.3603,-20.197 -1178.0002,-71.649 -1565.7179,-114.589 l -705.1053,-77.824 -419.1932,-231.952 c -230.6163,-127.585 -534.9906,-298.965 -676.4609,-380.931 l -257.2696,-148.77 0,-391.02 c 0,-378.157 -3.9292,-396.511 -120.9065,-560.481 -239.97,-336.3 -295.5925,-379.107 -492.5959,-379.107 -262.5154,0 -331.9585,-100.472 -471.9638,-683.183 l -113.1146,-470.706 -226.6758,-194.731 c -124.7084,-107.16 -295.8302,-257.108 -380.2434,-333.26 l -153.5295,-138.529 238.3873,-120.289 238.3875,-120.422 -11.5938,-179.037 -11.533,-179.038 -244.5264,-65.797 c -134.52,-36.252 -257.1897,-79.306 -272.7032,-95.722 -39.7214,-42.085 -235.467,-928.644 -394.3241,-1785.506 -74.1057,-399.798 -179.9242,-845.671 -235.1497,-991.021 -96.2635,-253.118 -99.6094,-287.66 -82.0952,-835.848 l 18.3749,-571.9 209.8835,-419.007 c 115.5105,-230.47 339.4046,-736.326 497.5568,-1124.078 158.1332,-387.752 322.8005,-782.193 365.8794,-876.585 55.7992,-122.227 78.5403,-251.408 79.0951,-450.262 1.0108,-309.662 -14.9492,-351.139 -253.7737,-663.005 -155.8152,-203.224 -168.2697,-237.291 -189.9335,-518.491 -15.1373,-195.947 -9.0497,-309.662 17.3356,-325.983 22.2965,-13.851 123.5703,7.676 224.9733,47.69 184.0532,72.485 184.7961,72.485 393.4219,-11.438 174.1217,-69.92 251.2484,-135.736 462.5189,-393.946 163.7458,-200.203 276.9003,-381.672 319.5933,-512.183 168.0132,-513.627 295.0681,-830.965 332.69,-830.965 22.553,0 139.6481,85.747 260.1784,190.589 120.4525,104.728 243.3692,190.475 273.1593,190.475 29.6932,0 151.1033,-175.75 269.7431,-390.545 154.6391,-280.25 304.5453,-484.082 530.081,-721.012 318.0182,-334.115 327.503,-339.72 720.6682,-427.899 81.0065,-18.24 157.2611,-118.104 381.026,-499.2821 153.8373,-262.1046 303.1677,-476.5386 331.9299,-476.5386 28.6919,0 110.827,51.452 182.3886,114.323 71.6414,62.89 157.4606,114.3416 190.6973,114.3416 93.2235,0 889.6524,-466.5636 889.6524,-521.1896 0,-26.505 -54.6535,-125.875 -121.4613,-220.628 l -121.4822,-172.349 46.1776,-539.41 c 54.7789,-639.407 139.46,-922.678 452.0727,-1511.849 331.4645,-624.815 373.977,-682.461 578.4855,-786.087 102.144,-51.813 195.5765,-119.928 207.6662,-151.43 12.0973,-31.502 5.0084,-162.488 -15.7035,-291.175 -20.7119,-128.687 -27.2365,-266.855 -14.5046,-306.983 29.7616,-93.784 581.8407,-866.742 812.2385,-1137.112 117.4314,-137.807 204.212,-291.422 258.5862,-457.33 56.3137,-171.988 100.3427,-248.349 141.0537,-244.948 32.574,2.679 205.142,92.682 383.491,200.07 178.341,107.274 363.652,194.978 411.857,194.845 48.127,0 247.754,-60.686 443.53,-134.52 335.394,-126.483 390.827,-135.603 959.996,-158.099 332.255,-13.034 620.098,-33.953 639.601,-46.474 19.525,-12.407 116.352,-148.029 215.23,-301.264 98.838,-153.254 216.834,-293.873 262.121,-312.474 45.354,-18.601 303.492,-69.692 573.731,-113.601 556.455,-90.364 509.527,-70.908 1071.22,-443.707 l 419.212,-278.293 995.797,-135.242 995.718,-135.128 924.284,553.166 c 508.398,304.209 938.433,553.166 955.71,553.166 17.236,0 516.606,-138.168 1109.733,-306.869 593.117,-168.682 1155.593,-315.495 1249.877,-326.325 157.5,-17.879 211.665,2.432 664.114,251.275 l 492.678,270.75 1195.919,186.333 1195.868,186.466 255.099,209.931 c 409.344,336.775 502.805,433.713 502.805,521.056 0,280.117 92.967,1207.032 125.153,1247.654 21.326,26.885 205.27,134.406 408.758,238.887 l 369.989,190.095 255.575,536.997 c 216.013,454.043 272.751,543.552 367.373,579.31 139.323,52.554 140.471,98.04 13.682,546.117 l -98.797,349.201 184.299,355.889 184.231,355.889 458.846,38.19 458.786,38.076 433.143,247.741 c 420.084,240.217 439.479,257.127 642.194,561.45 l 209.053,313.786 575.9,225.264 c 712.582,278.5206 825.25,315.7416 1295.441,427.7656 360.987,85.994 380.56,95.969 471.895,240.6921 52.444,82.954 142.312,250.325 199.745,371.83 l 104.421,220.875 -108.986,619.818 c -59.919,340.917 -109.174,654.246 -109.431,696.084 -0.693,41.952 119.202,213.446 265.426,381.178 146.183,167.618 265.871,330.581 265.989,361.969 0,31.502 -50.589,228.779 -112.727,438.349 -62.126,209.57 -113.293,392.616 -113.679,406.6 -0.693,13.984 76.502,115.919 170.865,226.366 94.324,110.561 171.519,219.659 171.519,242.63 0,22.99 -85.749,277.191 -190.578,565.098 -104.807,287.888 -190.556,554.496 -190.556,592.686 0,42.199 200.566,236.93 514.506,499.644 282.969,236.702 514.467,445.284 514.467,463.543 0,18.354 -85.492,80.389 -189.985,138.054 -104.521,57.646 -190.269,126.35 -190.537,152.76 -0.692,26.505 78.225,193.743 174.57,371.925 155.726,288.021 177.447,358.321 196.456,635.037 l 21.276,311.125 313.812,347.472 c 269.298,298.243 363.789,443.707 666.273,1026.19 333.891,642.694 350.354,685.615 312.109,810.293 -45.672,148.865 -41.167,164.331 388.867,1325.022 139.143,375.459 248.199,694.983 242.378,710.183 -5.831,15.086 -187.279,211.641 -403.184,436.772 -302.921,315.628 -427.627,478.857 -546.001,714.191 -137.431,273.429 -150.727,324.159 -128.132,488.471 39.768,289.484 16.541,319.162 -373.73,477.147 -300.772,121.638 -407.797,145.103 -750.936,164.559 l -400.124,22.629 -245.754,395.181 -245.674,395.276 -308.811,-25.042 c -298.503,-24.206 -313.88,-21.299 -459.351,84.778 -354.037,258.324 -713.956,576.517 -785.842,694.735 -134.463,221.122 -651.71,835.088 -722.371,857.489 -91.593,29.07 -548.357,-186.96 -967.106,-457.463 l -342.957,-221.597 -535.933,-76.133 -535.863,-76.266 -378.797,104.348 c -241.804,66.538 -647.384,233.529 -1121.893,461.833 l -743.151,357.58 -353.503,-34.542 -353.601,-34.428 -384.819,-274.74 c -211.586,-151.069 -433.956,-293.246 -494.131,-316.008 -81.641,-30.761 -229.575,-26.277 -584.178,18.126 -460.687,57.532 -480.191,63.745 -652.452,208.24 -392.166,328.985 -255.634,298.338 -1463.969,328.738 -597.869,14.972 -1181.295,17.651 -1296.627,5.605 -190.121,-19.57 -225.845,-38.912 -384.68,-208.221 -152.062,-162.26 -194.637,-186.694 -323.889,-186.219 -193.361,1.216 -230.736,27.968 -297.099,216.144 l -55.176,156.294 268.466,603.269 c 147.718,331.816 270.623,655.215 273.228,718.713 l 4.702,115.311 -590.712,22.724 c -409.273,15.827 -631.701,40.983 -724.172,82.099 -210.755,93.651 -528.002,114.209 -705.016,45.866 z m -6072.173,-2587.534 c 13.129,-314.165 -15.168,-505.609 -122.787,-830.11 -151.995,-458.413 -249.674,-642.314 -1057.924,-1992.283 -1191.8096,-1990.574 -1751.6009,-3302.467 -2049.671,-4803.467 -133.8056,-673.702 -135.3997,-406.847 -15.1772,2573.892 110.5116,2740.295 304.7524,3742.412 823.1998,4245.95 184.1118,178.79 371.1839,259.92 970.5294,420.698 687.669,184.395 862.079,259.065 1125.554,481.897 203.806,172.349 228.202,183.407 271.824,123.69 26.404,-36.119 50.859,-135.242 54.452,-220.267 z m 6996.715,-229.273 c 417.045,-674.424 531.309,-927.77 584.842,-1297.396 24.236,-167.732 62.027,-327.427 84.037,-355.053 21.901,-27.607 246.861,-171.855 499.941,-320.587 894.949,-525.806 1177.483,-749.854 1335.955,-1059.041 142.509,-278.16 167.013,-430.92 210.318,-1314.193 51.236,-1045.266 172.659,-2751.238 249.487,-3506.184 125.322,-1231.371 303.227,-2072.539 624.405,-2952.639 64.017,-175.389 107.914,-327.56 97.461,-338.029 -34.9,-34.903 -216.042,161.405 -750.045,813.466 -1579.31,1928.045 -2337.697,3599.361 -2512.068,5535.556 -42.862,475.703 -72.454,582.369 -124.193,447.355 -64.663,-168.473 -106.779,-973.883 -83.602,-1600.142 74.808,-2025.362 597.354,-4665.793 1334.437,-6743.101 96.195,-271.111 169.599,-508.763 163.143,-528.219 -6.473,-19.342 -155.855,158.593 -331.879,395.542 -899.691,1210.566 -1805.749,1831.961 -2668.47,1830.118 -382.345,-1.197 -598.633,-55.328 -964.017,-242.877 -163.202,-83.695 -305.632,-143.393 -316.473,-132.449 -10.902,10.83 68.404,214.548 176.132,452.694 787.567,1740.99 1114.108,3288.35 1116.831,5292.166 1.218,853.005 -28.76,1258.997 -88.036,1195.613 -17.049,-18.24 -50.751,-264.651 -74.8,-547.694 -138.5,-1627.73 -625.235,-2851.444 -1629.327,-4096.913 -453.509,-562.533 -1841.618,-1898.747 -1905.755,-1834.66 -13.554,13.623 66.175,243.257 177.143,510.473 451.111,1086.155 747.072,2033.153 878.433,2810.481 72.029,426.189 83.345,634.049 81.196,1486.294 -1.218,545.015 -20.455,1303.609 -42.364,1685.775 l -39.9,694.868 133.688,331.665 c 434.41,1077.262 1037.596,1558.437 2058.59,1642.36 l 343.028,28.101 25.713,232.902 c 32.355,293.379 94.105,524.343 192.468,719.701 167.834,333.374 763.408,1276.838 804.832,1274.881 24.257,-1.197 185.757,-230.964 358.849,-510.834 z m 2700.154,-227.449 c 164.479,-164.426 285.326,-330.201 368.094,-504.868 137.442,-290.206 148.274,-446.386 90.505,-1308.245 -50.605,-755.782 -70.998,-766.612 -251.241,-133.418 -78.721,276.45 -180.261,523.127 -298.118,724.052 -336.87,574.693 -401.897,737.561 -420.084,1050.377 -13.682,234.992 -4.951,300.181 47.612,352.602 111.61,111.663 209.131,73.701 463.232,-180.5 z m 3325.328,-247.874 c 163.838,-82.46 622.256,-272.441 1018.589,-422.161 942.641,-356.136 1098.962,-442.985 1440.148,-800.204 238.209,-249.223 319.373,-372.172 531.356,-804.441 398.879,-813.447 385.949,-721.734 391.146,-2777.877 2.417,-976.068 26.098,-2088.841 52.571,-2477.22 26.467,-387.733 41.555,-747.878 33.427,-800.185 -8.733,-57.038 -73.84,142.538 -161.62,495.387 -207.093,832.542 -653.986,2164.138 -956.025,2849.031 -427.747,969.741 -811.477,1599.534 -1677.753,2753.177 -743.915,990.793 -924.611,1319.683 -1007.371,1833.557 -34.464,214.187 -28.77,300.675 19.87,300.675 9.762,0 151.757,-67.393 315.662,-149.739 z m -1021.706,-1742.699 c 1469.85,-1516.448 2290.217,-3313.886 2571.542,-5634.432 89.483,-737.675 61.226,-2284.675 -55.303,-3029.76 -103.411,-661.656 -279.416,-1391.807 -466.944,-1937.677 -167.837,-488.452 -465.945,-1149.367 -518.388,-1149.367 -19.367,0 -45.226,401.964 -58.256,905.141 -50.81,1960.781 -297.119,3000.214 -1182.207,4989.211 -390.441,877.439 -510.465,1201.313 -581.512,1569.248 -58.515,302.974 -71.315,796.537 -22.623,873.164 16.663,26.144 138.47,90.003 270.751,141.835 493.37,193.382 678.629,448.191 638.473,878.389 -30.265,324.273 -163.894,656.792 -559.415,1392.169 -391.908,728.669 -489.004,943.103 -532.774,1176.499 -38.88,207.499 -16.91,281.086 69.918,234.631 34.711,-18.62 226.765,-202.635 426.738,-409.051 z m -10586.619,-726.351 c 238.001,-500.859 332.81,-883.995 332.316,-1342.427 -0.694,-406.961 -120.333,-1262.74 -205.4,-1466.477 -30.444,-72.846 -288.663,-492.708 -573.802,-932.767 -734.152,-1133.559 -1100.288,-1853.849 -1435.583,-2824.198 -289.178,-836.932 -479.617,-1696.853 -565.495,-2553.468 -24.197,-240.958 -54.029,-481.061 -66.304,-533.577 -49.672,-211.033 -86.017,190.456 -110.383,1219.553 -54.433,2297.31 186.054,4010.217 772.101,5500.045 185.302,471.067 407.096,908.808 857.843,1692.824 409.184,711.779 568.465,1055.85 639.718,1382.061 68.345,312.835 71.503,319.637 128.383,272.441 27.167,-22.61 129.204,-208.943 226.606,-414.01 z M 7069.5041,21020.391 C 5965.4142,18515.089 5392.0568,16578.647 5231.9343,14814.42 c -52.9397,-583.699 -66.6216,-657.647 -116.1945,-627 -111.0949,68.59 -411.996,925.965 -547.5363,1560.015 -120.8952,565.573 -261.3166,1609.756 -234.5247,1743.668 34.2646,171.38 407.4209,928.378 652.3233,1323.312 296.2955,477.774 653.4328,946.637 1338.8142,1757.652 311.4042,368.296 674.7792,802.864 807.5171,965.485 132.7474,162.488 249.7722,287.166 260.0987,276.83 10.2676,-10.336 -135.0235,-367.555 -322.928,-793.991 z m 22196.5879,-175.028 c 329.028,-560.462 825.861,-1286.452 1392.457,-2034.843 844.099,-1114.844 953.222,-1352.382 977.608,-2129.71 16.783,-534.318 -47.68,-994.916 -280.189,-1999.941 -170.487,-737.181 -241.169,-978.975 -279.176,-955.51 -16.901,10.469 -41.929,238.279 -55.602,506.35 -109.503,2145.766 -540.744,3774.237 -1485.929,5611.689 -307.475,597.797 -601.227,1373.548 -520.101,1373.548 18.049,0 130.996,-167.238 250.932,-371.583 z M 7354.6221,15908.84 l 121.2333,-328.396 -92.3438,-562.781 c -153.2616,-934.23 -118.3719,-1743.782 110.7681,-2566.235 49.6033,-178.068 230.033,-724.299 400.8886,-1213.606 170.8936,-489.326 310.6614,-896.534 310.6614,-905.046 0,-92.188 -156.7671,118.104 -634.7995,851.523 -568.9704,872.917 -931.2453,1530.45 -1053.4191,1911.875 -167.2113,521.797 -176.8842,1143.078 -26.1573,1680.056 148.3311,528.713 610.7418,1504.915 698.8772,1475.465 23.712,-7.885 97.6695,-162.127 164.2911,-342.855 z M 28796.227,14337.995 c 655.056,-1226.735 900.969,-1867.966 931.939,-2429.891 19.692,-357.96 16.099,-380.57 -96.701,-609.729 -64.482,-130.853 -305.316,-464.132 -535.237,-740.468 -229.883,-276.469 -474.164,-584.2881 -542.764,-684.0381 -68.641,-99.845 -131.164,-162.488 -138.827,-139.498 -7.733,23.104 73.076,322.4301 179.567,665.0571 550.497,1771.997 521.596,2660.627 -126.855,3900.016 -177.857,339.834 -189.381,415.473 -91.928,605.112 52.848,102.885 90.195,52.535 420.806,-566.561 z m -10762.94,-1480.214 c 297.346,-765.168 510.387,-1680.531 657.829,-2826.402 68.087,-529.2067 84.045,-853.7077 86.906,-1772.1117 3.616,-1154.63 -19.057,-1445.083 -173.994,-2227.142 -123.113,-621.053 -443.261,-1545.783 -535.278,-1545.783 -19.513,0 -26.216,30.039 -14.959,66.652 149.293,484.329 223.952,1197.057 174.933,1669.72 -51.421,496.128 -188.219,882.645 -626.293,1769.812 -448.272,907.706 -547.466,1207.166 -598.96,1808.3636 -51.74,604.1431 -25.137,794.8461 141.125,1011.8261 530.714,692.436 621.809,1002.459 625.66,2129.349 1.733,491.739 44.514,478.002 263.031,-84.284 z m -5642,-570.665 c 105.324,-213.598 239.962,-542.602 299.178,-731.253 99.442,-316.597 107.73,-389.937 107.73,-952.831 0,-713.0891 -60.236,-992.7311 -237.934,-1105.4767 -422.748,-268.185 -556.941,-593.922 -675.203,-1638.447 -80.117,-708.016 -96.016,-797.411 -134.837,-757.644 -50.168,51.452 -260.872,782.211 -366.829,1272.126 -116.204,537.7 -159.401,1388.9956 -94.879,1871.7287 60.445,452.466 115.788,651.928 448.085,1615.475 159.043,461.092 296.098,862.22 304.583,891.29 29.137,99.617 152.133,-63.612 350.106,-464.968 z m 10903.302,256.386 c 64.334,-54.131 176.953,-224.789 250.218,-379.259 216.27,-455.601 311.099,-849.205 339.544,-1408.679 13.87,-272.46 60.976,-769.9181 104.688,-1105.2491 168.401,-1292.0576 22.218,-2159.7496 -565.079,-3353.7856 -254.07,-516.553 -287.01,-531.373 -251.04,-113.829 16.217,188.385 29.513,668.344 29.513,1066.679 0,692.664 -4.704,738.397 -108.302,1054.519 -80.75,246.164 -180.243,434.929 -390.266,739.974 -357.581,519.3656 -439.15,730.1516 -463.655,1198.0457 -15.663,299.82 -1.772,439.565 79.975,803.966 176.202,785.232 406.75,1348.848 620.544,1517.074 132.293,104.101 212.23,99.731 353.86,-19.456 z M 14488.442,6794.9753 c 171.439,-88.673 423.064,-390.925 552.021,-663.005 104.163,-220.02 120.589,-296.153 120.46,-559.493 0,-278.407 -17.555,-348.821 -201.22,-811.509 -192.658,-485.659 -316.346,-925.224 -369.305,-1313.223 -13.592,-99.484 -39.622,-180.975 -57.809,-180.975 -18.178,0 -51.612,98.648 -74.226,219.165 -22.672,120.536 -102.353,416.347 -177.152,657.4 -315.77,1018.039 -290.198,857.261 -270.415,1699.645 20.573,878.275 53.304,1006.24 257.505,1006.24 63.403,0 162.44,-24.453 220.141,-54.245 z"
   id="cachoeira_dourada_mg"
   inkscape:connector-curvature="0" /></svg>