<?xml version="1.0" encoding="UTF-8" standalone="no"?>
<!-- Creator: CorelDRAW -->

<svg
   xmlns:dc="http://purl.org/dc/elements/1.1/"
   xmlns:cc="http://creativecommons.org/ns#"
   xmlns:rdf="http://www.w3.org/1999/02/22-rdf-syntax-ns#"
   xmlns:svg="http://www.w3.org/2000/svg"
   xmlns="http://www.w3.org/2000/svg"
   xmlns:xlink="http://www.w3.org/1999/xlink"
   xmlns:sodipodi="http://sodipodi.sourceforge.net/DTD/sodipodi-0.dtd"
   xmlns:inkscape="http://www.inkscape.org/namespaces/inkscape"
   xml:space="preserve"
   width="130"
   height="105"
   style="fill-rule:evenodd"
   viewBox="0 0 36688.888 29634.862"
   id="svg2"
   sodipodi:version="0.32"
   inkscape:version="0.48.3.1 r9886"
   sodipodi:docname="logo_ipb.svg"
   inkscape:output_extension="org.inkscape.output.svg.inkscape"
   version="1.1"><metadata
   id="metadata113"><rdf:RDF><cc:Work
       rdf:about=""><dc:format>image/svg+xml</dc:format><dc:type
         rdf:resource="http://purl.org/dc/dcmitype/StillImage" /><dc:title></dc:title></cc:Work></rdf:RDF></metadata><sodipodi:namedview
   inkscape:window-height="744"
   inkscape:window-width="1366"
   inkscape:pageshadow="2"
   inkscape:pageopacity="0.0"
   guidetolerance="10.0"
   gridtolerance="10.0"
   objecttolerance="10.0"
   borderopacity="1.0"
   bordercolor="#666666"
   pagecolor="#ffffff"
   id="base"
   inkscape:zoom="4.39"
   inkscape:cx="83.782566"
   inkscape:cy="45.1847"
   inkscape:window-x="0"
   inkscape:window-y="24"
   inkscape:current-layer="svg2"
   showgrid="false"
   inkscape:window-maximized="1" />
 <defs
   id="defs4"><linearGradient
   id="linearGradient3212"><stop
     style="stop-color:#005500;stop-opacity:1;"
     offset="0"
     id="stop3214" /><stop
     style="stop-color:#00aa00;stop-opacity:1;"
     offset="1"
     id="stop3216" /></linearGradient>
  <style
   type="text/css"
   id="style6">
   
    .str0 {stroke:#1F1A17;stroke-width:76}
    .str2 {stroke:#1F1A17;stroke-width:281}
    .str1 {stroke:#72706F;stroke-width:352}
    .str3 {stroke:#1F1A17;stroke-width:704}
    .fil3 {fill:none}
    .fil0 {fill:#BFD8FF}
    .fil1 {fill:#F4E2BA}
    .fil2 {fill:#FFF3E3}
    .fil4 {fill:#00FF00}
    .fil5 {fill:#FF9900}
    .fil6 {fill:#Ff0000}
    .fil7 {fill:#00FFFF}
    .fil8 {fill:#FFFF00}
   
  </style>
 
  
  
  
  
  
  
  
  
  
  
  
  
  
  
  
  
  
  
  
  
  
  
  
  
  
  
  
 <linearGradient
   inkscape:collect="always"
   xlink:href="#linearGradient3212"
   id="linearGradient3222"
   gradientUnits="userSpaceOnUse"
   gradientTransform="matrix(0.38746802,0,0,0.38746802,58214.736,57087.807)"
   x1="55960.086"
   y1="147769.98"
   x2="55905.457"
   y2="154556.08" /><linearGradient
   inkscape:collect="always"
   xlink:href="#linearGradient3212"
   id="linearGradient3230"
   gradientUnits="userSpaceOnUse"
   gradientTransform="matrix(0.38746802,0,0,0.38746802,60398.064,48991.298)"
   x1="55960.086"
   y1="147769.98"
   x2="55905.457"
   y2="154556.08" /><linearGradient
   inkscape:collect="always"
   xlink:href="#linearGradient3212"
   id="linearGradient3234"
   gradientUnits="userSpaceOnUse"
   gradientTransform="matrix(0.38746802,0,0,0.38746802,61307.784,66548.896)"
   x1="55960.086"
   y1="147769.98"
   x2="55905.457"
   y2="154556.08" /><linearGradient
   inkscape:collect="always"
   xlink:href="#linearGradient3212"
   id="linearGradient3238"
   gradientUnits="userSpaceOnUse"
   gradientTransform="matrix(0.38746802,0,0,0.38746802,26010.644,63819.736)"
   x1="55960.086"
   y1="147769.98"
   x2="55905.457"
   y2="154556.08" /><linearGradient
   inkscape:collect="always"
   xlink:href="#linearGradient3212"
   id="linearGradient3242"
   gradientUnits="userSpaceOnUse"
   gradientTransform="matrix(0.38746802,0,0,0.38746802,50755.031,50628.794)"
   x1="55725.301"
   y1="149530.88"
   x2="55905.457"
   y2="154556.08" /><linearGradient
   inkscape:collect="always"
   xlink:href="#linearGradient3212"
   id="linearGradient3246"
   gradientUnits="userSpaceOnUse"
   gradientTransform="matrix(0.38746802,0,0,0.38746802,51892.181,69869.374)"
   x1="55960.086"
   y1="147769.98"
   x2="55905.457"
   y2="154556.08" /><linearGradient
   inkscape:collect="always"
   xlink:href="#linearGradient3212"
   id="linearGradient3250"
   gradientUnits="userSpaceOnUse"
   gradientTransform="matrix(0.38746802,0,0,0.38746802,48355.644,65207.059)"
   x1="55960.086"
   y1="147769.98"
   x2="55905.457"
   y2="154556.08" /><linearGradient
   inkscape:collect="always"
   xlink:href="#linearGradient3212"
   id="linearGradient3254"
   gradientUnits="userSpaceOnUse"
   gradientTransform="matrix(0.38746802,0,0,0.38746802,74407.754,55541.283)"
   x1="55960.086"
   y1="147769.98"
   x2="55905.457"
   y2="154556.08" /><linearGradient
   inkscape:collect="always"
   xlink:href="#linearGradient3212"
   id="linearGradient3258"
   gradientUnits="userSpaceOnUse"
   gradientTransform="matrix(0.38746802,0,0,0.38746802,77227.886,63455.848)"
   x1="55960.086"
   y1="147769.98"
   x2="55905.457"
   y2="154556.08" /><linearGradient
   inkscape:collect="always"
   xlink:href="#linearGradient3212"
   id="linearGradient3262"
   gradientUnits="userSpaceOnUse"
   gradientTransform="matrix(0.38746802,0,0,0.38746802,69950.126,49901.018)"
   x1="55960.086"
   y1="147769.98"
   x2="55905.457"
   y2="154556.08" /><linearGradient
   inkscape:collect="always"
   xlink:href="#linearGradient3212"
   id="linearGradient3266"
   gradientUnits="userSpaceOnUse"
   gradientTransform="matrix(0.38746802,0,0,0.38746802,84414.675,59544.051)"
   x1="55960.086"
   y1="147769.98"
   x2="55905.457"
   y2="154556.08" /><linearGradient
   inkscape:collect="always"
   xlink:href="#linearGradient3212"
   id="linearGradient3270"
   gradientUnits="userSpaceOnUse"
   gradientTransform="matrix(0.38746802,0,0,0.38746802,75044.559,47808.662)"
   x1="55960.086"
   y1="147769.98"
   x2="55905.457"
   y2="154556.08" /><linearGradient
   inkscape:collect="always"
   xlink:href="#linearGradient3212"
   id="linearGradient3274"
   gradientUnits="userSpaceOnUse"
   gradientTransform="matrix(0.38746802,0,0,0.38746802,82777.179,56360.03)"
   x1="55960.086"
   y1="147769.98"
   x2="55905.457"
   y2="154556.08" /><linearGradient
   inkscape:collect="always"
   xlink:href="#linearGradient3212"
   id="linearGradient3278"
   gradientUnits="userSpaceOnUse"
   gradientTransform="matrix(0.38746802,0,0,0.38746802,86870.919,54631.563)"
   x1="55960.086"
   y1="147769.98"
   x2="55905.457"
   y2="154556.08" /><linearGradient
   inkscape:collect="always"
   xlink:href="#linearGradient3212"
   id="linearGradient3282"
   gradientUnits="userSpaceOnUse"
   gradientTransform="matrix(0.38746802,0,0,0.38746802,86598.003,51174.627)"
   x1="55960.086"
   y1="147769.98"
   x2="55905.457"
   y2="154556.08" /><linearGradient
   inkscape:collect="always"
   xlink:href="#linearGradient3212"
   id="linearGradient3290"
   gradientUnits="userSpaceOnUse"
   gradientTransform="matrix(0.38746802,0,0,0.38746802,84505.647,53630.871)"
   x1="55960.086"
   y1="147769.98"
   x2="55905.457"
   y2="154556.08" /><linearGradient
   inkscape:collect="always"
   xlink:href="#linearGradient3212"
   id="linearGradient3294"
   gradientUnits="userSpaceOnUse"
   gradientTransform="matrix(0.38746802,0,0,0.38746802,77591.775,44715.614)"
   x1="55960.086"
   y1="147769.98"
   x2="55905.457"
   y2="154556.08" /><linearGradient
   inkscape:collect="always"
   xlink:href="#linearGradient3212"
   id="linearGradient3298"
   gradientUnits="userSpaceOnUse"
   gradientTransform="matrix(0.38746802,0,0,0.38746802,84141.759,49173.243)"
   x1="55960.086"
   y1="147769.98"
   x2="55905.457"
   y2="154556.08" /><linearGradient
   inkscape:collect="always"
   xlink:href="#linearGradient3212"
   id="linearGradient3302"
   gradientUnits="userSpaceOnUse"
   gradientTransform="matrix(0.38746802,0,0,0.38746802,81321.627,48445.467)"
   x1="55960.086"
   y1="147769.98"
   x2="55905.457"
   y2="154556.08" /><linearGradient
   inkscape:collect="always"
   xlink:href="#linearGradient3212"
   id="linearGradient3306"
   gradientUnits="userSpaceOnUse"
   gradientTransform="matrix(0.38746802,0,0,0.38746802,76500.111,41895.482)"
   x1="55960.086"
   y1="147769.98"
   x2="55905.457"
   y2="154556.08" /><linearGradient
   inkscape:collect="always"
   xlink:href="#linearGradient3212"
   id="linearGradient3310"
   gradientUnits="userSpaceOnUse"
   gradientTransform="matrix(0.38746802,0,0,0.38746802,43932.13,67367.644)"
   x1="55960.086"
   y1="147769.98"
   x2="55905.457"
   y2="154556.08" /><linearGradient
   inkscape:collect="always"
   xlink:href="#linearGradient3212"
   id="linearGradient3314"
   gradientUnits="userSpaceOnUse"
   gradientTransform="matrix(0.38746802,0,0,0.38746802,46206.43,66366.952)"
   x1="55960.086"
   y1="147769.98"
   x2="55905.457"
   y2="154556.08" /><linearGradient
   inkscape:collect="always"
   xlink:href="#linearGradient3212"
   id="linearGradient3318"
   gradientUnits="userSpaceOnUse"
   gradientTransform="matrix(0.38746802,0,0,0.38746802,56258.838,68413.822)"
   x1="55960.086"
   y1="147769.98"
   x2="55905.457"
   y2="154556.08" /><linearGradient
   inkscape:collect="always"
   xlink:href="#linearGradient3212"
   id="linearGradient3326"
   gradientUnits="userSpaceOnUse"
   gradientTransform="matrix(0.38746802,0,0,0.38746802,36244.996,50401.364)"
   x1="55725.301"
   y1="149530.88"
   x2="55905.457"
   y2="154556.08" /><linearGradient
   inkscape:collect="always"
   xlink:href="#linearGradient3212"
   id="linearGradient3330"
   gradientUnits="userSpaceOnUse"
   gradientTransform="matrix(0.38746802,0,0,0.38746802,41130.84,49298.663)"
   x1="55725.301"
   y1="149530.88"
   x2="55905.457"
   y2="154556.08" /><linearGradient
   inkscape:collect="always"
   xlink:href="#linearGradient3212"
   id="linearGradient3334"
   gradientUnits="userSpaceOnUse"
   gradientTransform="matrix(0.38746802,0,0,0.38746802,61216.812,37801.741)"
   x1="55960.086"
   y1="147769.98"
   x2="55905.457"
   y2="154556.08" /><linearGradient
   inkscape:collect="always"
   xlink:href="#linearGradient3212"
   id="linearGradient3338"
   gradientUnits="userSpaceOnUse"
   gradientTransform="matrix(0.38746802,0,0,0.38746802,64218.888,38529.517)"
   x1="55960.086"
   y1="147769.98"
   x2="55905.457"
   y2="154556.08" /><linearGradient
   inkscape:collect="always"
   xlink:href="#linearGradient3212"
   id="linearGradient3346"
   gradientUnits="userSpaceOnUse"
   gradientTransform="matrix(0.38746802,0,0,0.38746802,42749.494,39894.097)"
   x1="55960.086"
   y1="147769.98"
   x2="55905.457"
   y2="154556.08" /><linearGradient
   inkscape:collect="always"
   xlink:href="#linearGradient3212"
   id="linearGradient3350"
   gradientUnits="userSpaceOnUse"
   gradientTransform="matrix(0.38746802,0,0,0.38746802,44659.906,43714.921)"
   x1="55960.086"
   y1="147769.98"
   x2="55905.457"
   y2="154556.08" /><linearGradient
   inkscape:collect="always"
   xlink:href="#linearGradient3212"
   id="linearGradient3354"
   gradientUnits="userSpaceOnUse"
   gradientTransform="matrix(0.38746802,0,0,0.38746802,39019.642,42623.257)"
   x1="55960.086"
   y1="147769.98"
   x2="55905.457"
   y2="154556.08" /><linearGradient
   inkscape:collect="always"
   xlink:href="#linearGradient3212"
   id="linearGradient3358"
   gradientUnits="userSpaceOnUse"
   gradientTransform="matrix(0.38746802,0,0,0.38746802,42031.417,43509.24)"
   x1="55725.301"
   y1="149530.88"
   x2="55905.457"
   y2="154556.08" /><linearGradient
   inkscape:collect="always"
   xlink:href="#linearGradient3212"
   id="linearGradient3362"
   gradientUnits="userSpaceOnUse"
   gradientTransform="matrix(0.38746802,0,0,0.38746802,40498.052,37128.039)"
   x1="55960.086"
   y1="147769.98"
   x2="55905.457"
   y2="154556.08" /></defs>
 
 
 <g
   id="Destaque"
   transform="translate(0,-164375.14)">
 </g>
 
 <g
   id="Regiões geoeconômicas"
   transform="translate(0,-164375.14)">
 </g>
 
 
 
 
 
 



















<path
   style="fill:#ffffff;fill-opacity:1;fill-rule:nonzero;stroke:#ffffff;stroke-width:143.18252563;stroke-linecap:square;stroke-linejoin:miter;stroke-miterlimit:4;stroke-opacity:1;stroke-dasharray:none;stroke-dashoffset:0"
   d="m 16958.844,27810.676 c -916.581,-113.432 -1779.581,-560.093 -2456.068,-1271.186 -458.357,-481.802 -761.497,-1010.78 -968.646,-1690.275 -106.171,-348.266 -117.451,-452.009 -118.095,-1086.063 -0.596,-582.708 15.072,-757.94 92.813,-1038.313 388.561,-1401.355 1399.474,-2446.275 2814.7,-2909.386 347.948,-113.86 422.79,-122.034 1139.152,-124.412 723.546,-2.4 788.948,4.444 1161.057,121.539 1453.411,457.354 2478.106,1538.325 2851.95,3008.582 124.795,490.79 115.666,1425.979 -18.788,1924.865 -191.595,710.903 -516.582,1289.19 -1026.939,1827.349 -661.532,697.572 -1503.843,1120.865 -2463.425,1237.97 -441.531,53.883 -567.565,53.799 -1007.711,-0.672 l 0,0 z"
   id="path3101"
   inkscape:connector-curvature="0" /><path
   id="path3070"
   d="m 19279.717,18669.075 v -1572.078 c 1366.582,-277.39 2396.46,-1485.805 2396.46,-2935.065 0,-1654.756 -1341.418,-2995.572 -2995.576,-2995.572 -1654.154,0 -2995.572,1340.816 -2995.572,2995.572 0,1449.26 1029.878,2657.675 2396.459,2935.065 v 1293.49 c -197.109,-21.57 -396.615,-34.749 -599.115,-34.749 -1273.718,0 -2441.393,443.345 -3364.031,1181.456 l -3724.096,-3724.699 c 312.736,-473.902 497.863,-1040.063 497.863,-1650.563 0,-1654.756 -1341.4177,-2995.572 -2995.5747,-2995.572 -1654.1544,0 -2995.5723,1340.816 -2995.5723,2995.572 0,1449.26 1029.2777,2657.675 2396.4593,2935.065 v 4913.341 c -1367.1816,277.392 -2396.4593,1485.804 -2396.4593,2935.663 0,1655.356 1341.4179,2995.574 2995.5723,2995.574 1654.157,0 2995.5747,-1340.218 2995.5747,-2995.574 0,-1449.859 -1029.2787,-2658.271 -2396.4587,-2935.062 v -4913.343 c 382.235,-77.885 736.313,-229.461 1050.849,-437.354 l 3724.6957,3724.699 c -737.511,921.438 -1180.856,2089.113 -1180.856,3362.83 0,2978.201 2412.635,5390.835 5392.034,5392.035 2978.2,-1.2 5390.836,-2413.834 5392.034,-5392.035 -1.198,-2347.931 -1501.981,-4338.191 -3594.69,-5078.696 z m -1797.344,9202.405 c -2277.235,-5.392 -4119.514,-1847.672 -4124.905,-4123.709 5.391,-2277.235 1847.67,-4119.512 4124.905,-4124.306 2276.037,4.794 4118.315,1847.071 4123.707,4124.306 -5.392,2276.037 -1847.67,4118.317 -4123.707,4123.709 z"
   inkscape:connector-curvature="0"
   style="fill:#cccccc" /><path
   inkscape:label="#path4052"
   inkscape:export-ydpi="90"
   inkscape:export-xdpi="90"
   inkscape:export-filename="/home/johnatas/Empresa/NibbleLab/Projetos/2ª Igreja Frutal/mdl3.png"
   sodipodi:nodetypes="cscssccssscssccccccccccsscsscssssccscccccccsssccsccsscssscscsssssscssscssssscsccscssssssscccssscccccsscscscscccccsscsscscscscsccsssssccsscsscscssccsccccsscscccsscccscssscscccsccsccccssssssscccsccsssscsscsscssscsscsscsssscsscsscccsssssssssssscsssssssssssssssccscsccsscsssscsssssscscscssccccsssscssssccsssssssccsscsscsscssscssscssscsssssscsssssscsssssssscsscccscscsssc"
   style="fill:#0f472e;fill-opacity:1"
   d="m 17244.143,26410.31 c -19.822,-7.675 -73.852,-14.634 -135.824,-17.548 -110.896,-5.178 -124.683,-8.987 -144.957,-39.933 -12.858,-19.596 -11.719,-22.825 37.046,-105.238 27.66,-46.733 50.298,-90.315 50.298,-96.856 0,-17.577 -71.353,-120.741 -92.692,-134.005 -10.135,-6.306 -42.518,-15.845 -71.936,-21.178 -76.058,-13.813 -77.179,-14.314 -93.596,-42.11 -12.421,-21.039 -14.445,-40.245 -12.354,-117.323 2.806,-103.344 -0.763,-114.563 -48.655,-152.499 -30.998,-24.536 -221.753,-130.902 -242.273,-135.079 -18.128,-3.705 -7.741,22.776 44.84,114.433 65.718,114.536 88.63,177.981 88.63,245.418 0,61.445 -4.421,66.066 -111.937,117.136 l -63.856,30.316 -259.88,0.553 -259.89,0.576 -65.835,41.036 -65.868,41.06 -138.148,2.601 -138.145,2.602 -108.092,-50.308 -108.11,-50.308 -185.899,-7.933 c -102.24,-4.363 -254.433,-15.476 -338.175,-24.75 l -152.293,-16.808 -90.541,-50.099 c -49.811,-27.557 -115.551,-64.574 -146.108,-82.276 l -55.566,-32.133 0,-84.456 c 0,-81.677 -0.847,-85.641 -26.115,-121.057 -51.83,-72.636 -63.844,-81.882 -106.393,-81.882 -56.701,0 -71.7,-21.7 -101.937,-147.558 l -24.434,-101.667 -48.958,-42.059 c -26.936,-23.146 -63.896,-55.532 -82.129,-71.98 l -33.16,-29.92 51.489,-25.982 51.487,-26.009 -2.503,-38.67 -2.49,-38.67 -52.815,-14.212 c -29.054,-7.83 -55.55,-17.128 -58.899,-20.673 -8.582,-9.091 -50.859,-200.577 -85.172,-385.648 -16.004,-86.351 -38.86,-182.654 -50.787,-214.048 -20.793,-54.67 -21.514,-62.13 -17.732,-180.532 l 3.969,-123.522 45.332,-90.502 c 24.949,-49.779 73.306,-159.036 107.465,-242.786 34.156,-83.75 69.722,-168.943 79.025,-189.332 12.052,-26.398 16.964,-54.301 17.085,-97.249 0.219,-66.885 -3.229,-75.842 -54.812,-143.203 -33.654,-43.892 -36.345,-51.251 -41.024,-111.987 -3.269,-42.322 -1.954,-66.882 3.745,-70.408 4.816,-2.991 26.69,1.658 48.591,10.301 39.753,15.655 39.914,15.655 84.973,-2.471 37.61,-15.101 54.268,-29.317 99.899,-85.087 35.367,-43.241 59.808,-82.437 69.029,-110.625 36.289,-110.936 63.731,-179.478 71.857,-179.478 4.871,0 30.161,18.521 56.194,41.165 26.017,22.62 52.564,41.14 59,41.14 6.411,0 32.635,-37.96 58.26,-84.353 33.4,-60.53 65.779,-104.555 114.491,-155.729 68.688,-72.164 70.736,-73.375 155.654,-92.422 17.497,-3.938 33.968,-25.508 82.298,-107.838 33.227,-56.611 65.481,-102.926 71.693,-102.926 6.198,0 23.938,11.113 39.394,24.691 15.474,13.584 34.009,24.698 41.187,24.698 20.136,0 192.155,-100.772 192.155,-112.571 0,-5.724 -11.805,-27.187 -26.234,-47.653 l -26.24,-37.224 9.975,-116.506 c 11.83,-138.104 30.121,-199.287 97.642,-326.539 71.591,-134.953 80.773,-147.405 124.945,-169.786 22.061,-11.191 42.241,-25.903 44.854,-32.707 2.612,-6.805 1.081,-35.095 -3.393,-62.89 -4.473,-27.795 -5.883,-57.638 -3.133,-66.304 6.429,-20.257 125.672,-187.207 175.434,-245.603 25.363,-29.764 44.107,-62.943 55.851,-98.777 12.163,-37.148 21.673,-53.64 30.465,-52.906 7.037,0.579 44.308,20.019 82.83,43.212 38.52,23.17 78.545,42.113 88.955,42.085 10.396,0 53.513,-13.106 95.798,-29.054 72.44,-27.32 84.414,-29.29 207.345,-34.147 71.764,-2.817 133.935,-7.335 138.148,-10.039 4.216,-2.679 25.13,-31.973 46.486,-65.069 21.348,-33.101 46.833,-63.474 56.615,-67.491 9.796,-4.016 65.55,-15.052 123.919,-24.535 120.187,-19.519 110.051,-15.316 231.369,-95.836 l 90.545,-60.107 215.079,-29.211 215.065,-29.187 199.631,119.477 c 109.808,65.706 202.691,119.479 206.422,119.479 3.723,0 111.581,-29.845 239.689,-66.281 128.105,-36.433 249.592,-68.144 269.957,-70.482 34.017,-3.862 45.717,0.524 143.439,54.272 l 106.413,58.478 258.303,40.246 258.292,40.274 55.099,45.343 c 88.413,72.739 108.6,93.677 108.6,112.542 0,60.501 20.08,260.703 27.031,269.477 4.606,5.807 44.335,29.029 88.287,51.596 l 79.914,41.058 55.199,115.984 c 46.656,98.069 58.912,117.402 79.348,125.124 30.092,11.351 30.341,21.176 2.956,117.955 l -21.34,75.423 39.807,76.868 39.792,76.867 99.104,8.25 99.092,8.222 93.554,53.509 c 90.732,51.884 94.921,55.537 138.706,121.266 l 45.152,67.773 124.387,48.656 c 153.909,60.157 178.244,68.196 279.798,92.392 77.97,18.574 82.197,20.727 101.924,51.985 11.328,17.918 30.738,54.067 43.142,80.311 l 22.555,47.706 -23.54,133.873 c -12.941,73.634 -23.58,141.309 -23.635,150.345 -0.15,9.061 25.744,46.102 57.328,82.33 31.573,36.203 57.425,71.401 57.45,78.181 0,6.803 -10.926,49.414 -24.348,94.678 -13.417,45.265 -24.47,84.799 -24.553,87.82 -0.149,3.02 16.523,25.037 36.904,48.893 20.373,23.88 37.046,47.444 37.046,52.404 0,4.966 -18.52,59.87 -41.161,122.055 -22.637,62.179 -41.158,119.763 -41.158,128.012 0,9.114 43.32,51.174 111.127,107.916 61.117,51.125 111.118,96.176 111.118,100.121 0,3.964 -18.465,17.362 -41.035,29.817 -22.574,12.45 -41.096,27.29 -41.153,32.994 -0.15,5.724 16.896,41.847 37.705,80.332 33.635,62.207 38.326,77.392 42.432,137.16 l 4.595,67.197 67.779,75.052 c 58.166,64.415 78.575,95.834 143.909,221.643 72.115,138.813 75.67,148.084 67.41,175.013 -9.865,32.153 -8.891,35.494 83.991,286.188 30.052,81.094 53.607,150.108 52.349,153.39 -1.258,3.258 -40.449,45.713 -87.082,94.338 -65.427,68.172 -92.362,103.426 -117.929,154.256 -29.684,59.056 -32.555,70.014 -27.676,105.503 8.59,62.525 3.573,68.936 -80.721,103.058 -64.962,26.272 -88.078,31.339 -162.191,35.543 l -86.423,4.888 -53.079,85.353 -53.063,85.374 -66.699,-5.407 c -64.473,-5.229 -67.795,-4.6 -99.213,18.311 -76.468,55.793 -154.207,124.52 -169.733,150.054 -29.042,47.758 -140.76,180.368 -156.024,185.206 -19.781,6.279 -118.436,-40.381 -208.881,-98.807 l -74.074,-47.862 -115.755,-16.444 -115.74,-16.473 -81.816,22.539 c -52.227,14.372 -139.825,50.439 -242.313,99.75 l -160.512,77.233 -76.353,-7.461 -76.373,-7.435 -83.117,-59.342 c -45.7,-32.629 -93.728,-63.337 -106.725,-68.253 -17.634,-6.644 -49.586,-5.675 -126.176,3.915 -99.502,12.427 -103.714,13.769 -140.92,44.977 -84.704,71.057 -55.214,64.438 -316.199,71.003 -129.131,3.234 -255.144,3.813 -280.055,1.211 -41.063,-4.227 -48.78,-8.404 -83.086,-44.973 -32.843,-35.046 -42.039,-40.324 -69.956,-40.22 -41.763,0.261 -49.836,6.04 -64.17,46.683 l -11.917,33.758 57.985,130.298 c 31.906,71.667 58.452,141.519 59.014,155.233 l 1.015,24.906 -127.585,4.908 c -88.399,3.418 -136.441,8.852 -156.412,17.733 -45.521,20.227 -114.042,24.668 -152.275,9.906 z m -1311.513,-558.874 c 2.836,-67.855 -3.275,-109.205 -26.519,-179.294 -32.83,-99.012 -53.927,-138.731 -228.499,-430.307 -257.417,-429.939 -378.324,-713.292 -442.702,-1037.488 -28.901,-145.511 -29.245,-87.876 -3.28,555.927 23.87,591.87 65.824,808.314 177.802,917.071 39.766,38.617 80.17,56.141 209.622,90.865 148.528,39.828 186.199,55.956 243.105,104.085 44.019,37.225 49.289,39.615 58.711,26.716 5.703,-7.803 10.984,-29.211 11.76,-47.575 z m 1511.203,-49.521 c 90.076,-145.667 114.755,-200.386 126.318,-280.221 5.235,-36.227 13.396,-70.719 18.151,-76.687 4.73,-5.962 53.318,-37.118 107.981,-69.242 193.297,-113.568 254.32,-161.958 288.55,-228.74 30.779,-60.079 36.072,-93.072 45.425,-283.848 11.065,-225.764 37.293,-594.233 53.886,-757.292 27.068,-265.961 65.492,-447.643 134.864,-637.733 13.827,-37.881 23.307,-70.748 21.05,-73.01 -7.537,-7.538 -46.662,34.861 -162.001,175.698 -341.111,416.434 -504.913,777.417 -542.574,1195.61 -9.257,102.746 -15.649,125.785 -26.825,96.623 -13.965,-36.388 -23.062,-210.346 -18.056,-345.609 16.157,-437.453 129.02,-1007.753 288.22,-1456.426 20.778,-58.555 36.632,-109.885 35.239,-114.089 -1.4,-4.175 -33.664,34.256 -71.683,85.433 -194.322,261.468 -390.018,395.68 -576.355,395.282 -82.582,-0.258 -129.296,-11.95 -208.216,-52.458 -35.249,-18.078 -66.013,-30.971 -68.355,-28.607 -2.354,2.339 14.775,46.339 38.043,97.776 170.105,376.031 240.634,710.242 241.221,1143.04 0.263,184.239 -6.211,271.928 -19.014,258.239 -3.682,-3.94 -10.962,-57.161 -16.155,-118.295 -29.915,-351.571 -135.044,-615.876 -351.914,-884.883 -97.952,-121.499 -397.767,-410.105 -411.619,-396.262 -2.929,2.943 14.293,52.54 38.26,110.256 97.434,234.595 161.359,439.134 189.731,607.029 15.557,92.049 18.001,136.946 17.537,321.019 -0.263,117.717 -4.418,281.562 -9.151,364.106 l -8.617,150.082 28.875,71.635 c 93.827,232.677 224.108,336.604 444.629,354.73 l 74.089,6.07 5.555,50.304 c 6.988,63.366 20.324,113.251 41.57,155.444 36.25,72.006 164.887,275.782 173.833,275.36 5.239,-0.258 40.122,-49.884 77.508,-110.334 z m 583.199,-49.126 c 35.525,-35.515 61.626,-71.319 79.503,-109.045 29.686,-62.681 32.026,-96.415 19.548,-282.565 -10.93,-163.238 -15.335,-165.577 -54.265,-28.816 -17.003,59.709 -38.934,112.988 -64.39,156.387 -72.76,124.126 -86.805,159.303 -90.732,226.868 -2.956,50.754 -1.07,64.835 10.283,76.156 24.106,24.119 45.17,15.92 100.053,-38.985 z m 718.228,-53.537 c 35.387,-17.81 134.4,-58.844 220.003,-91.182 203.598,-76.92 237.361,-95.679 311.053,-172.835 51.45,-53.828 68.981,-80.383 114.767,-173.747 86.152,-175.695 83.36,-155.886 84.482,-599.987 0.522,-210.818 5.636,-451.164 11.354,-535.047 5.717,-83.748 8.976,-161.534 7.219,-172.831 -1.886,-12.319 -15.947,30.786 -34.907,106.998 -44.73,179.818 -141.253,467.426 -206.489,615.353 -92.389,209.453 -175.269,345.481 -362.373,594.652 -160.675,213.998 -199.705,285.035 -217.579,396.025 -7.445,46.262 -6.214,64.942 4.29,64.942 2.109,0 32.778,-14.555 68.18,-32.341 z m -220.675,-376.401 c 317.468,-327.534 494.658,-715.757 555.42,-1216.966 19.327,-159.328 13.224,-493.461 -11.945,-654.388 -22.336,-142.912 -60.35,-300.615 -100.854,-418.515 -36.251,-105.499 -100.638,-248.249 -111.965,-248.249 -4.182,0 -9.768,86.819 -12.582,195.499 -10.975,423.503 -64.173,648.008 -255.342,1077.606 -84.33,189.516 -110.255,259.469 -125.6,338.938 -12.639,65.439 -15.404,172.041 -4.886,188.593 3.599,5.646 29.908,19.439 58.479,30.635 106.562,41.766 146.575,96.802 137.902,189.72 -6.538,70.039 -35.399,141.858 -120.827,300.691 -84.646,157.383 -105.618,203.698 -115.071,254.108 -8.398,44.817 -3.654,60.711 15.1,50.677 7.498,-4.02 48.978,-43.764 92.171,-88.349 z m -2286.576,-156.883 c 51.405,-108.178 71.883,-190.932 71.775,-289.947 -0.149,-87.898 -25.99,-272.735 -44.363,-316.741 -6.575,-15.733 -62.348,-106.419 -123.932,-201.465 -158.569,-244.834 -237.65,-400.408 -310.069,-609.991 -62.46,-180.767 -103.592,-366.498 -122.14,-551.516 -5.226,-52.045 -11.67,-103.904 -14.321,-115.248 -10.728,-45.579 -18.579,41.137 -23.841,263.41 -11.757,496.189 40.184,866.155 166.764,1187.94 40.024,101.743 87.928,196.291 185.283,365.627 88.379,153.736 122.781,228.05 138.171,298.509 14.761,67.568 15.445,69.037 27.73,58.843 5.867,-4.884 27.906,-45.13 48.943,-89.421 z m -1260.116,-332.898 c -238.469,-541.113 -362.307,-959.359 -396.891,-1340.411 -11.436,-126.071 -14.39,-142.042 -25.097,-135.423 -23.994,14.816 -88.986,199.997 -118.261,336.944 -26.112,122.157 -56.441,347.686 -50.655,376.609 7.401,37.016 87.999,200.518 140.894,285.819 63.997,103.194 141.134,204.462 289.167,379.631 67.26,79.546 145.744,173.408 174.413,208.532 28.673,35.096 53.949,62.025 56.179,59.791 2.218,-2.232 -29.164,-79.386 -69.749,-171.492 z m 4794.182,-37.803 c 71.066,-121.051 178.375,-277.857 300.753,-439.499 182.315,-240.794 205.884,-292.098 211.15,-459.992 3.627,-115.406 -10.297,-214.888 -60.516,-431.961 -36.824,-159.223 -52.089,-211.446 -60.299,-206.379 -3.651,2.262 -9.055,51.466 -12.009,109.366 -23.651,463.458 -116.794,815.188 -320.943,1212.054 -66.41,129.116 -129.857,296.668 -112.335,296.668 3.899,0 28.294,-36.121 54.199,-80.257 z m -4732.599,-1066.226 26.185,-70.93 -19.946,-121.553 c -33.103,-201.782 -25.566,-376.634 23.925,-554.275 10.714,-38.46 49.684,-156.439 86.587,-262.123 36.911,-105.688 67.098,-193.64 67.098,-195.479 0,-19.91 -33.86,25.509 -137.107,183.919 -122.891,188.539 -201.137,330.558 -227.527,412.941 -36.116,112.7 -38.204,246.89 -5.65,362.871 32.04,114.193 131.914,325.042 150.949,318.681 5.123,-1.703 21.095,-35.017 35.486,-74.052 z m 4631.114,-339.283 c 141.484,-264.959 194.598,-403.457 201.288,-524.825 4.252,-77.316 3.476,-82.198 -20.887,-131.695 -13.927,-28.261 -65.944,-100.246 -115.605,-159.93 -49.651,-59.713 -102.413,-126.199 -117.231,-147.745 -14.824,-21.564 -28.328,-35.095 -29.982,-30.129 -1.671,4.99 15.782,69.64 38.782,143.643 118.9,382.73 112.659,574.662 -27.398,842.354 -38.416,73.4 -40.904,89.738 -19.855,130.698 11.414,22.222 19.481,11.348 90.888,-122.371 z m -2324.659,-319.707 c 64.223,-165.268 110.238,-362.974 142.084,-610.467 14.705,-114.302 18.154,-184.39 18.77,-382.754 0.781,-249.386 -4.116,-312.12 -37.582,-481.034 -26.589,-134.14 -95.737,-333.869 -115.612,-333.869 -4.215,0 -5.662,6.487 -3.232,14.396 32.247,104.609 48.373,258.548 37.785,360.638 -11.107,107.157 -40.653,190.639 -135.272,382.257 -96.821,196.052 -118.245,260.732 -129.369,390.584 -11.175,130.485 -5.429,171.676 30.483,218.541 114.627,149.557 134.302,216.518 135.135,459.913 0.374,106.209 9.614,103.242 56.81,-18.205 z m -1218.6,-123.256 c 22.748,-46.136 51.83,-117.197 64.619,-157.942 21.478,-68.38 23.268,-84.222 23.268,-205.799 0,-154.018 -13.011,-214.417 -51.391,-238.77 -91.308,-57.924 -120.292,-128.279 -145.835,-353.884 -17.304,-152.922 -20.739,-172.23 -29.123,-163.64 -10.835,11.112 -56.345,168.947 -79.231,274.762 -25.098,116.138 -34.428,300.006 -20.492,404.269 13.054,97.729 25.009,140.809 96.781,348.924 34.351,99.589 63.953,186.227 65.785,192.507 6.294,21.516 32.86,-13.74 75.619,-100.427 z m 2354.975,55.376 c 13.896,-11.692 38.22,-48.552 54.043,-81.914 46.713,-98.405 67.194,-183.419 73.338,-304.259 2.996,-58.847 13.171,-166.292 22.613,-238.718 36.371,-279.069 4.797,-466.479 -122.052,-724.376 -54.876,-111.569 -61.99,-114.771 -54.221,-24.586 3.502,40.689 6.374,144.354 6.374,230.389 0,149.608 -1.015,159.485 -23.391,227.763 -17.442,53.168 -38.93,93.939 -84.294,159.826 -77.231,112.176 -94.85,157.703 -100.143,258.762 -3.382,64.756 -0.383,94.94 17.275,173.647 38.057,169.599 87.852,291.333 134.028,327.668 28.573,22.483 45.84,21.54 76.43,-4.202 z M 16580.29,21760.562 c 37.029,-19.152 91.377,-84.435 119.229,-143.201 22.499,-47.521 26.046,-63.966 26.019,-120.844 0,-60.131 -3.792,-75.341 -43.462,-175.275 -41.612,-104.895 -68.328,-199.837 -79.765,-283.64 -2.936,-21.487 -8.557,-39.087 -12.486,-39.087 -3.925,0 -11.148,21.306 -16.032,47.336 -4.896,26.035 -22.106,89.927 -38.262,141.991 -68.202,219.883 -62.679,185.157 -58.406,367.1 4.444,189.697 11.512,217.337 55.617,217.337 13.694,0 35.086,-5.283 47.548,-11.717 z"
   id="cachoeira_dourada_mg"
   inkscape:connector-curvature="0" /><path
   sodipodi:type="arc"
   style="fill:#217821;fill-opacity:1;fill-rule:nonzero;stroke:none"
   id="path3105"
   sodipodi:cx="32.706276"
   sodipodi:cy="80.156906"
   sodipodi:rx="10.826119"
   sodipodi:ry="11.167996"
   d="m 43.532395,80.156906 a 10.826119,11.167996 0 1 1 -21.652238,0 10.826119,11.167996 0 1 1 21.652238,0 z"
   transform="matrix(287.37016,0,0,287.37016,-1546.0239,2039.2815)" /><path
   transform="matrix(287.37016,0,0,287.37016,-1504.344,-9005.8798)"
   d="m 43.532395,80.156906 a 10.826119,11.167996 0 1 1 -21.652238,0 10.826119,11.167996 0 1 1 21.652238,0 z"
   sodipodi:ry="11.167996"
   sodipodi:rx="10.826119"
   sodipodi:cy="80.156906"
   sodipodi:cx="32.706276"
   id="path3107"
   style="fill:#ffcc00;fill-opacity:1;fill-rule:nonzero;stroke:none"
   sodipodi:type="arc" /><path
   sodipodi:type="arc"
   style="fill:#0088aa;fill-opacity:1;fill-rule:nonzero;stroke:none"
   id="path3109"
   sodipodi:cx="32.706276"
   sodipodi:cy="80.156906"
   sodipodi:rx="10.826119"
   sodipodi:ry="11.167996"
   d="m 43.532395,80.156906 a 10.826119,11.167996 0 1 1 -21.652238,0 10.826119,11.167996 0 1 1 21.652238,0 z"
   transform="matrix(287.37016,0,0,287.37016,9249.0593,-8964.1998)" /><g
   style="font-size:21143.00976562px;font-style:normal;font-variant:normal;font-weight:normal;font-stretch:normal;text-align:start;line-height:125%;letter-spacing:0px;word-spacing:0px;writing-mode:lr-tb;text-anchor:start;fill:#cccccc;fill-opacity:1;stroke:none;font-family:AngsanaUPC;-inkscape-font-specification:AngsanaUPC"
   id="text3111"><path
     d="m 28781.01,25884.173 c -106.685,705.457 -402.631,1293.909 -887.841,1765.359 -481.779,468.009 -1037.54,702.014 -1667.284,702.014 -812.136,0 -1469.413,-309.712 -1971.833,-929.136 -502.423,-619.423 -753.633,-1386.82 -753.633,-2302.193 0,-997.957 258.093,-1811.811 774.28,-2441.564 516.185,-633.183 1219.919,-949.777 2111.204,-949.783 805.247,0 1405.744,256.379 1801.492,769.118 395.738,512.751 593.609,1102.923 593.615,1770.52 l -4310.16,0 c -0,846.55 206.473,1553.725 619.424,2121.528 416.389,567.807 968.708,851.709 1656.96,851.708 843.1,0 1450.48,-497.258 1822.139,-1491.78 l 211.637,134.209 m -1424.676,-2007.966 c -58.505,-1108.076 -509.308,-1662.116 -1352.409,-1662.122 -412.952,0 -760.517,156.583 -1042.697,469.73 -282.184,309.717 -445.643,707.181 -490.378,1192.392 l 2885.484,0"
     style=""
     id="path3136" /><path
     d="m 33075.684,26921.708 c -320.04,894.724 -844.829,1342.086 -1574.37,1342.086 -798.37,0 -1197.554,-557.481 -1197.553,-1672.445 l 0,-4196.598 -991.079,0 0,-221.961 c 819.016,-337.235 1453.925,-1104.632 1904.729,-2302.193 l 211.637,0 0,2049.262 1455.647,0 0,474.892 -1455.647,0 0,4046.904 c -0,688.25 206.472,1032.374 619.424,1032.373 351.004,0 605.656,-184.105 763.956,-552.32 l 263.256,0"
     style=""
     id="path3138" /></g><path
   inkscape:connector-curvature="0"
   id="path3126"
   style="font-size:16664.77929687999858288px;font-style:normal;font-variant:normal;font-weight:bold;font-stretch:normal;text-align:start;line-height:125%;letter-spacing:0px;word-spacing:0px;writing-mode:lr-tb;text-anchor:start;fill:#217821;fill-opacity:1;stroke:none;font-family:AngsanaUPC;-inkscape-font-specification:AngsanaUPC Bold"
   d="m 11656.258,1145.8557 56.96,2428.9242 -219.702,0 c -97.65,-569.5914 -341.763,-1049.6798 -732.339,-1440.2666 -390.584,-390.5739 -840.8367,-585.8641 -1350.7582,-585.8711 -295.6505,0.01 -568.2431,82.7341 -817.7784,248.1815 -246.8272,162.7486 -370.2398,402.7928 -370.2381,720.1333 0,260.393 112.5614,495.0124 337.6897,703.8591 225.1241,206.145 705.2125,490.9432 1440.267,854.3954 903.213,442.1198 1489.084,853.0429 1757.613,1232.7705 271.231,379.7342 406.849,789.3011 406.855,1228.702 0,645.5446 -246.831,1178.5241 -740.476,1598.94 -490.943,420.4168 -1083.594,630.625 -1777.9563,630.6252 -409.5701,-2e-4 -881.5214,-111.2071 -1415.8553,-333.6211 -168.1683,-70.5213 -310.5673,-105.782 -427.1977,-105.7823 -235.9769,3e-4 -417.7053,145.1118 -545.1856,435.3349 l -199.359,0 0,-2750.3396 199.359,0 c 143.7545,699.7924 427.1965,1272.1012 850.3268,1716.9279 423.1272,442.1162 927.6268,663.1738 1513.5005,663.1736 333.6176,2e-4 636.0466,-94.9325 907.2866,-284.7984 271.232,-189.865 406.85,-458.389 406.855,-805.5729 0,-284.7969 -109.855,-537.0467 -329.553,-756.7502 -216.993,-222.4118 -621.135,-478.7301 -1212.4274,-768.9559 -840.8356,-414.9888 -1440.268,-806.9254 -1798.2989,-1175.8108 -355.3208,-368.8775 -532.9806,-821.8422 -532.98,-1358.8956 -6e-4,-596.7147 215.6323,-1094.4334 646.8994,-1493.1577 433.977,-401.423 968.3126,-602.1379 1603.0085,-602.1454 314.6314,0.01 675.3758,84.0908 1082.2344,252.2501 406.85,165.4614 649.607,248.1885 728.27,248.1815 176.299,0.01 299.712,-166.8034 370.238,-500.4316 l 162.742,0" /><path
   inkscape:connector-curvature="0"
   id="path3128"
   style="font-size:16664.77929687999858288px;font-style:normal;font-variant:normal;font-weight:bold;font-stretch:normal;text-align:start;line-height:125%;letter-spacing:0px;word-spacing:0px;writing-mode:lr-tb;text-anchor:start;fill:#ffcc00;fill-opacity:1;stroke:none;font-family:AngsanaUPC;-inkscape-font-specification:AngsanaUPC Bold"
   d="m 19545.176,1312.6663 0,1969.178 -191.222,0 c -103.076,-409.5616 -244.119,-739.1138 -423.129,-988.6576 -179.022,-249.5311 -358.038,-405.492 -537.049,-467.8832 -179.021,-62.3776 -416.353,-93.5698 -711.996,-93.5766 l -541.117,0 0,5618.667 c 0,290.2242 9.489,493.6515 28.48,610.2825 18.982,113.9199 93.572,215.6335 223.77,305.1412 132.901,86.796 313.273,130.1938 541.117,130.1936 l 244.113,0 0,199.3589 -3812.231,0 0,-199.3589 240.045,0 c 222.412,2e-4 385.153,-33.9044 488.226,-101.7138 105.779,-67.8087 181.726,-147.8235 227.838,-240.0444 48.82,-92.2198 73.232,-326.8393 73.234,-703.8591 l 0,-5618.667 -524.843,0 c -314.636,0.01 -576.379,43.4047 -785.23,130.1936 -208.853,86.8023 -393.294,254.9689 -553.322,504.5001 -160.031,249.5437 -267.169,554.6846 -321.416,915.4237 l -203.427,0 0,-1969.178 6538.159,0" /><path
   inkscape:connector-curvature="0"
   id="path3130"
   style="font-size:16664.77929687999858288px;font-style:normal;font-variant:normal;font-weight:bold;font-stretch:normal;text-align:start;line-height:125%;letter-spacing:0px;word-spacing:0px;writing-mode:lr-tb;text-anchor:start;fill:#0088aa;fill-opacity:1;stroke:none;font-family:AngsanaUPC;-inkscape-font-specification:AngsanaUPC Bold"
   d="m 25171.98,6113.5548 1977.316,-4800.8885 2965.972,0 0,199.3589 -235.976,0 c -179.026,0.01 -328.206,28.4869 -447.54,85.4395 -119.354,54.2543 -206.149,131.5567 -260.387,231.9074 -54.257,100.3642 -81.38,340.4084 -81.371,720.1333 l 0,4800.8885 c 0,298.3613 9.484,501.7886 28.48,610.2825 21.689,105.7828 94.923,204.7841 219.701,297.0041 127.472,92.2207 307.844,138.3309 541.117,138.3307 l 235.976,0 0,199.3589 -3804.094,0 0,-199.3589 235.976,0 c 328.19,2e-4 541.11,-70.5213 638.762,-211.5646 100.351,-143.7549 150.529,-421.7721 150.537,-834.0527 l 0,-5398.9653 -2791.025,6643.9415 -130.194,0 -2835.779,-6595.1189 0,5130.441 c 0,341.7593 13.56,584.5159 40.686,728.2704 27.122,141.0437 127.479,265.8124 301.072,374.3066 176.302,108.4949 417.702,162.7422 724.202,162.742 l 0,199.3589 -2494.021,0 0,-199.3589 77.303,0 c 263.099,2e-4 465.17,-50.1785 606.213,-150.5364 141.043,-103.0694 231.907,-222.4134 272.593,-358.0323 43.397,-135.6175 65.096,-379.7302 65.097,-732.339 l 0,-4605.5981 c 0,-290.2169 -9.494,-492.288 -28.48,-606.2139 -18.987,-113.9127 -93.577,-214.2701 -223.77,-301.0727 -130.194,-86.7887 -309.21,-130.1865 -537.049,-130.1936 l -231.907,0 0,-199.3589 2974.11,0 2046.48,4800.8885" /><rect
   style="fill:#217821;fill-opacity:1;fill-rule:nonzero;stroke:none"
   id="rect3119"
   width="6730.959"
   height="423.35516"
   x="719.17554"
   y="9602.8008" /><rect
   y="9602.8008"
   x="7444.2593"
   height="423.35516"
   width="10736.246"
   id="rect3121"
   style="fill:#ffcc00;fill-opacity:1;fill-rule:nonzero;stroke:none" /><rect
   style="fill:#0088aa;fill-opacity:1;fill-rule:nonzero;stroke:none"
   id="rect3123"
   width="17754.207"
   height="423.35516"
   x="18106.277"
   y="9602.8008" /></svg>