<?xml version="1.0" encoding="UTF-8" standalone="no"?>
<!-- Created with Inkscape (http://www.inkscape.org/) -->

<svg
   xmlns:dc="http://purl.org/dc/elements/1.1/"
   xmlns:cc="http://creativecommons.org/ns#"
   xmlns:rdf="http://www.w3.org/1999/02/22-rdf-syntax-ns#"
   xmlns:svg="http://www.w3.org/2000/svg"
   xmlns="http://www.w3.org/2000/svg"
   xmlns:sodipodi="http://sodipodi.sourceforge.net/DTD/sodipodi-0.dtd"
   xmlns:inkscape="http://www.inkscape.org/namespaces/inkscape"
   width="185"
   height="15"
   id="svg3001"
   version="1.1"
   inkscape:version="0.48.3.1 r9886"
   sodipodi:docname="nibblelab.svg">
  <defs
     id="defs3003" />
  <sodipodi:namedview
     id="base"
     pagecolor="#ffffff"
     bordercolor="#666666"
     borderopacity="1.0"
     inkscape:pageopacity="0.0"
     inkscape:pageshadow="2"
     inkscape:zoom="5.6"
     inkscape:cx="87.034156"
     inkscape:cy="7.8261688"
     inkscape:document-units="px"
     inkscape:current-layer="layer1"
     showgrid="false"
     inkscape:window-width="1366"
     inkscape:window-height="744"
     inkscape:window-x="0"
     inkscape:window-y="24"
     inkscape:window-maximized="1" />
  <metadata
     id="metadata3006">
    <rdf:RDF>
      <cc:Work
         rdf:about="">
        <dc:format>image/svg+xml</dc:format>
        <dc:type
           rdf:resource="http://purl.org/dc/dcmitype/StillImage" />
        <dc:title></dc:title>
      </cc:Work>
    </rdf:RDF>
  </metadata>
  <g
     inkscape:label="Camada 1"
     inkscape:groupmode="layer"
     id="layer1"
     transform="translate(0,-1037.3622)">
    <g
       style="font-size:14.38356686px;font-style:normal;font-variant:normal;font-weight:normal;font-stretch:normal;text-align:start;line-height:125%;letter-spacing:0px;word-spacing:0px;writing-mode:lr-tb;text-anchor:start;fill:#000000;fill-opacity:1;stroke:none;font-family:Joy Circuit;-inkscape-font-specification:Joy Circuit"
       id="text3009">
      <path
         d="m 28.940051,1047.3045 c -2.6e-5,0.5082 -0.196601,0.9685 -0.589727,1.3808 -0.393175,0.4124 -0.934956,0.7671 -1.625343,1.0644 -0.690434,0.2973 -1.510296,0.5226 -2.45959,0.676 -0.939746,0.163 -1.960978,0.2446 -3.063699,0.2446 -0.795908,0 -1.558237,-0.058 -2.286987,-0.1726 -0.719194,-0.1055 -1.380837,-0.2637 -1.984933,-0.4747 -0.604123,-0.2014 -1.145903,-0.4507 -1.625343,-0.748 -0.479464,-0.3068 -0.872614,-0.652 -1.179452,-1.0356 l -2.934248,-3.6246 0,6.1418 -8.3424686,0 0,-7.9973 c 3e-7,-0.5082 0.1965755,-0.9685 0.5897262,-1.3808 0.3931502,-0.4123 0.9349306,-0.7671 1.6253431,-1.0644 0.6904086,-0.2973 1.5054766,-0.5226 2.4452063,-0.676 0.9493101,-0.163 1.9753369,-0.2446 3.078083,-0.2446 0.642458,0 1.280129,0.058 1.913015,0.1726 0.632867,0.1055 1.24177,0.2685 1.826713,0.4891 0.594509,0.211 1.160262,0.4699 1.697261,0.7767 0.546562,0.3069 1.045192,0.6569 1.495891,1.05 l 0.115068,-0.072 0.60411,0.7623 c 0.0767,0.086 0.153409,0.1726 0.230137,0.2589 0.0767,0.086 0.153409,0.1774 0.230137,0.2733 l -0.02877,0 1.927398,2.3445 0,-6.1418 8.342469,0 0,7.9973 0,0 m -1.869864,-7.0623 -4.602741,0 0,6.8897 c -2e-5,0.3836 -0.450704,0.5753 -1.352056,0.5753 -0.604127,0 -0.949332,-0.139 -1.035617,-0.4171 l -4.171234,-5.1205 0.05753,0 c -0.22056,-0.2877 -0.513026,-0.5418 -0.877397,-0.7624 -0.364395,-0.2301 -0.781519,-0.4219 -1.251371,-0.5753 -0.469873,-0.163 -0.982886,-0.2877 -1.539041,-0.374 -0.546584,-0.086 -1.117132,-0.1294 -1.711645,-0.1294 -0.8342531,0 -1.610965,0.057 -2.3301375,0.1726 -0.7095937,0.1151 -1.3280864,0.2781 -1.8554801,0.489 -0.5274002,0.211 -0.9397287,0.4699 -1.2369868,0.7767 -0.2972621,0.2973 -0.4458921,0.6281 -0.4458905,0.9925 l 0,7.0623 4.6027414,0 0,-6.8897 c -6.2e-6,-0.3836 0.4506784,-0.5753 1.3520555,-0.5753 0.604101,0 0.949307,0.139 1.035617,0.4171 l 4.142467,5.1205 c 0.230124,0.2877 0.52259,0.5466 0.877397,0.7767 0.36437,0.2302 0.776699,0.4268 1.236987,0.5898 0.460259,0.1534 0.963683,0.2685 1.510275,0.3452 0.546558,0.086 1.1219,0.1294 1.726028,0.1294 0.834228,0 1.606145,-0.058 2.315754,-0.1726 0.719157,-0.115 1.342444,-0.2781 1.869864,-0.489 0.527374,-0.211 0.939703,-0.4651 1.236986,-0.7623 0.297237,-0.3069 0.445867,-0.6425 0.445891,-1.0069 l 0,-7.0623"
         style=""
         id="path3033" />
      <path
         d="m 28.300432,1039.4223 8.112331,0 0,11.3343 -8.112331,0 0,-11.3343 m 1.869863,10.3993 4.372605,0 0,-9.4644 -4.372605,0 0,9.4644"
         style=""
         id="path3035" />
      <path
         d="m 48.747122,1039.4223 c 1.26574,0 2.445192,0.086 3.538358,0.2589 1.093134,0.1726 2.042448,0.4219 2.847946,0.748 0.80546,0.3164 1.438336,0.7143 1.898631,1.1938 0.460253,0.4699 0.69039,1.0068 0.690411,1.611 -2.1e-5,0.3164 -0.08153,0.6328 -0.24452,0.9493 -0.153446,0.3164 -0.46509,0.6185 -0.934932,0.9061 0.450664,0.2781 0.757513,0.5754 0.920548,0.8918 0.172581,0.3165 0.258883,0.6329 0.258904,0.9493 -2.1e-5,0.4795 -0.158241,0.9493 -0.474658,1.4096 -0.316459,0.4603 -0.829472,0.8678 -1.539041,1.2226 -0.709608,0.3644 -1.63495,0.6521 -2.776029,0.863 -1.141112,0.2206 -2.536316,0.3309 -4.185618,0.3309 l -12.973977,0 0,-11.3343 12.973977,0 0,0 m -11.104113,0.9349 0,9.4644 11.104113,0 c 1.304097,0 2.406836,-0.082 3.308221,-0.2445 0.901353,-0.163 1.63012,-0.3788 2.186302,-0.6473 0.565735,-0.278 0.973269,-0.5897 1.222603,-0.9349 0.258885,-0.3452 0.388337,-0.7 0.388356,-1.0644 -1.9e-5,-0.1726 -0.03838,-0.3452 -0.115068,-0.5178 -0.06714,-0.1822 -0.187006,-0.3548 -0.359589,-0.5178 -0.172622,-0.163 -0.412348,-0.3116 -0.719179,-0.4459 -0.297278,-0.1438 -0.676045,-0.2733 -1.136301,-0.3883 0.489023,-0.1151 0.882173,-0.2446 1.179452,-0.3884 0.306831,-0.1438 0.546557,-0.2925 0.719178,-0.4459 0.172584,-0.163 0.287652,-0.326 0.345206,-0.489 0.05752,-0.1726 0.08628,-0.3404 0.0863,-0.5034 -1.9e-5,-0.4603 -0.182211,-0.8678 -0.546575,-1.2227 -0.364403,-0.3547 -0.867827,-0.652 -1.510275,-0.8917 -0.632894,-0.2493 -1.385633,-0.4363 -2.25822,-0.561 -0.863028,-0.1342 -1.793165,-0.2014 -2.790412,-0.2014 l -11.104113,0 m 12.830141,7.2206 0,0.1438 c -0.143849,0.058 -0.537,0.086 -1.179452,0.086 l -7.278085,0 0,-1.7404 7.306852,0 c 0.297247,0 0.575329,0.024 0.834247,0.072 0.25889,0.038 0.484232,0.096 0.676028,0.1726 0.201355,0.077 0.359574,0.1678 0.474657,0.2733 0.115054,0.096 0.172588,0.2014 0.172603,0.3165 -1.5e-5,0.2493 -0.201385,0.4746 -0.60411,0.676 l -0.40274,0 m -8.457537,-5.2069 7.306852,0 c 0.297247,0 0.575329,0.024 0.834247,0.072 0.25889,0.038 0.484232,0.096 0.676028,0.1726 0.201355,0.077 0.359574,0.1678 0.474657,0.2732 0.115054,0.096 0.172588,0.2014 0.172603,0.3165 -1.5e-5,0.2397 -0.19659,0.4411 -0.589726,0.6041 -0.383576,0.163 -0.915768,0.2445 -1.596576,0.2445 l -7.278085,0 0,-1.6829"
         style=""
         id="path3037" />
      <path
         d="m 69.226847,1039.4223 c 1.26574,0 2.445192,0.086 3.538358,0.2589 1.093134,0.1726 2.042448,0.4219 2.847946,0.748 0.80546,0.3164 1.438336,0.7143 1.898631,1.1938 0.460253,0.4699 0.690389,1.0068 0.690411,1.611 -2.2e-5,0.3164 -0.08153,0.6328 -0.244521,0.9493 -0.153446,0.3164 -0.465089,0.6185 -0.934931,0.9061 0.450664,0.2781 0.757513,0.5754 0.920548,0.8918 0.172581,0.3165 0.258882,0.6329 0.258904,0.9493 -2.2e-5,0.4795 -0.158241,0.9493 -0.474658,1.4096 -0.316459,0.4603 -0.829472,0.8678 -1.539041,1.2226 -0.709608,0.3644 -1.63495,0.6521 -2.776029,0.863 -1.141112,0.2206 -2.536316,0.3309 -4.185618,0.3309 l -12.973977,0 0,-11.3343 12.973977,0 0,0 m -11.104113,0.9349 0,9.4644 11.104113,0 c 1.304096,0 2.406835,-0.082 3.308221,-0.2445 0.901353,-0.163 1.63012,-0.3788 2.186302,-0.6473 0.565735,-0.278 0.973269,-0.5897 1.222603,-0.9349 0.258885,-0.3452 0.388337,-0.7 0.388356,-1.0644 -1.9e-5,-0.1726 -0.03838,-0.3452 -0.115068,-0.5178 -0.06714,-0.1822 -0.187006,-0.3548 -0.359589,-0.5178 -0.172622,-0.163 -0.412348,-0.3116 -0.719179,-0.4459 -0.297278,-0.1438 -0.676045,-0.2733 -1.136301,-0.3883 0.489023,-0.1151 0.882173,-0.2446 1.179452,-0.3884 0.306831,-0.1438 0.546556,-0.2925 0.719178,-0.4459 0.172584,-0.163 0.287652,-0.326 0.345206,-0.489 0.05752,-0.1726 0.08628,-0.3404 0.0863,-0.5034 -1.9e-5,-0.4603 -0.182211,-0.8678 -0.546575,-1.2227 -0.364403,-0.3547 -0.867827,-0.652 -1.510275,-0.8917 -0.632894,-0.2493 -1.385633,-0.4363 -2.25822,-0.561 -0.863028,-0.1342 -1.793165,-0.2014 -2.790412,-0.2014 l -11.104113,0 m 12.830141,7.2206 0,0.1438 c -0.14385,0.058 -0.537,0.086 -1.179452,0.086 l -7.278085,0 0,-1.7404 7.306852,0 c 0.297247,0 0.575329,0.024 0.834247,0.072 0.25889,0.038 0.484232,0.096 0.676028,0.1726 0.201355,0.077 0.359574,0.1678 0.474657,0.2733 0.115053,0.096 0.172588,0.2014 0.172603,0.3165 -1.5e-5,0.2493 -0.201385,0.4746 -0.60411,0.676 l -0.40274,0 m -8.457537,-5.2069 7.306852,0 c 0.297247,0 0.575329,0.024 0.834247,0.072 0.25889,0.038 0.484232,0.096 0.676028,0.1726 0.201355,0.077 0.359574,0.1678 0.474657,0.2732 0.115053,0.096 0.172588,0.2014 0.172603,0.3165 -1.5e-5,0.2397 -0.196591,0.4411 -0.589726,0.6041 -0.383576,0.163 -0.915768,0.2445 -1.596576,0.2445 l -7.278085,0 0,-1.6829"
         style=""
         id="path3039" />
      <path
         d="m 88.946491,1050.7566 c -1.946586,0 -3.653434,-0.1199 -5.12055,-0.3596 -1.45754,-0.2302 -2.675347,-0.5658 -3.653426,-1.0069 -0.978084,-0.4411 -1.711645,-0.9733 -2.200686,-1.5966 -0.489041,-0.6232 -0.733561,-1.3232 -0.733562,-2.1 l 0,-6.2712 8.112332,0 0,6.2856 c -8e-6,0.3644 0.302047,0.6521 0.906165,0.863 0.6041,0.2014 1.471908,0.3021 2.603425,0.3021 l 8.745209,0 0,3.8836 -8.658907,0 0,0 m 6.789043,-0.935 0,-2.0137 -6.875345,0 c -1.735626,0 -3.068502,-0.1822 -3.998631,-0.5465 -0.920555,-0.374 -1.380829,-0.8918 -1.380823,-1.5535 l 0,-5.3507 -4.372604,0 0,5.3363 c -10e-7,0.6329 0.206163,1.2035 0.618493,1.7117 0.412327,0.5082 1.026025,0.9445 1.841097,1.3089 0.824653,0.3548 1.85068,0.6281 3.078083,0.8199 1.236979,0.1917 2.670539,0.2876 4.300687,0.2876 l 6.789043,0"
         style=""
         id="path3041" />
      <path
         d="m 118.22649,1050.7566 -12.94521,0 c -1.63014,0 -3.02055,-0.1103 -4.17123,-0.3309 -1.1411,-0.2109 -2.071236,-0.4938 -2.790412,-0.8486 -0.719179,-0.3548 -1.241782,-0.7623 -1.567809,-1.2226 -0.335616,-0.4603 -0.503424,-0.9349 -0.503425,-1.424 1e-6,-0.3356 0.0911,-0.6568 0.273288,-0.9637 0.182192,-0.3068 0.474658,-0.5945 0.877397,-0.863 -0.460274,-0.2877 -0.762328,-0.6041 -0.906164,-0.9493 -0.143835,-0.3548 -0.215753,-0.7479 -0.215754,-1.1795 10e-7,-0.5178 0.182193,-0.9924 0.546576,-1.4239 0.364383,-0.4411 0.915753,-0.8199 1.65411,-1.1363 0.747943,-0.3165 1.682873,-0.561 2.804793,-0.7336 1.1315,-0.1726 2.46438,-0.2589 3.99863,-0.2589 l 12.94521,0 0,11.3343 m -1.86986,-4.6891 0,-2.0137 -11.65069,0 c -0.68083,0 -1.21781,-0.082 -1.61096,-0.2445 -0.38357,-0.163 -0.57535,-0.3596 -0.57534,-0.5897 -10e-6,-0.1151 0.0575,-0.2206 0.1726,-0.3165 0.11506,-0.1054 0.26849,-0.1965 0.46028,-0.2733 0.20136,-0.086 0.4315,-0.1486 0.69041,-0.1869 0.25889,-0.048 0.53698,-0.072 0.83424,-0.072 l 11.67946,0 0,-2.0137 -11.07535,0 c -1.21781,0 -2.27261,0.067 -3.16438,0.2014 -0.89179,0.1247 -1.63494,0.3021 -2.229453,0.5322 -0.584935,0.2301 -1.021236,0.5082 -1.308905,0.8342 -0.287673,0.3165 -0.431508,0.6665 -0.431507,1.05 -10e-7,0.2398 0.02397,0.4651 0.07192,0.6761 0.05753,0.2014 0.167807,0.3883 0.330822,0.5609 0.163012,0.1726 0.393149,0.3309 0.690411,0.4747 0.306847,0.1342 0.709586,0.2589 1.208224,0.374 -0.863021,0.2205 -1.46713,0.4986 -1.812334,0.8342 -0.345207,0.326 -0.517809,0.6712 -0.517808,1.0356 -10e-7,0.374 0.129451,0.7336 0.388356,1.0788 0.258903,0.3452 0.676026,0.6521 1.25137,0.9205 0.575336,0.2685 1.313696,0.4843 2.215066,0.6473 0.91096,0.163 2.0137,0.2445 3.30822,0.2445 l 11.07535,0 0,-2.0137 -11.65069,0 c -0.30686,0 -0.59453,-0.019 -0.86301,-0.058 -0.2685,-0.048 -0.50343,-0.1103 -0.7048,-0.187 -0.19178,-0.086 -0.34521,-0.1822 -0.46027,-0.2877 -0.10549,-0.1054 -0.15823,-0.2157 -0.15822,-0.3308 -10e-6,-0.1246 0.0575,-0.2397 0.1726,-0.3452 0.11506,-0.1055 0.26849,-0.1966 0.46028,-0.2733 0.20136,-0.086 0.4315,-0.1486 0.69041,-0.187 0.25889,-0.048 0.53698,-0.072 0.83424,-0.072 l 11.67946,0"
         style=""
         id="path3043" />
      <path
         d="m 129.316,1050.7566 c -1.94659,0 -3.65344,-0.1199 -5.12055,-0.3596 -1.45754,-0.2302 -2.67535,-0.5658 -3.65343,-1.0069 -0.97808,-0.4411 -1.71164,-0.9733 -2.20068,-1.5966 -0.48905,-0.6232 -0.73357,-1.3232 -0.73357,-2.1 l 0,-6.2712 8.11234,0 0,6.2856 c -1e-5,0.3644 0.30204,0.6521 0.90616,0.863 0.6041,0.2014 1.47191,0.3021 2.60343,0.3021 l 8.7452,0 0,3.8836 -8.6589,0 0,0 m 6.78904,-0.935 0,-2.0137 -6.87534,0 c -1.73563,0 -3.06851,-0.1822 -3.99864,-0.5465 -0.92055,-0.374 -1.38082,-0.8918 -1.38082,-1.5535 l 0,-5.3507 -4.3726,0 0,5.3363 c 0,0.6329 0.20616,1.2035 0.61849,1.7117 0.41233,0.5082 1.02603,0.9445 1.8411,1.3089 0.82465,0.3548 1.85068,0.6281 3.07808,0.8199 1.23698,0.1917 2.67054,0.2876 4.30069,0.2876 l 6.78904,0"
         style=""
         id="path3045" />
      <path
         d="m 148.09599,1045.5785 2.2726,0 -1.12191,-1.3377 -1.15069,1.3377 m 5.58082,3.8835 -8.86027,0 -1.00685,1.2946 -8.86028,0 8.08356,-9.4644 0,0.014 c 0.56575,-0.6617 1.39041,-1.1411 2.47398,-1.4384 1.09314,-0.2973 2.3493,-0.4459 3.76849,-0.4459 1.41917,0 2.66574,0.1486 3.73973,0.4459 1.08354,0.2973 1.9082,0.7767 2.47397,1.4384 l 0,-0.014 8.08357,9.4644 -8.74521,0 -1.15069,-1.2946 m 1.20822,-0.9349 1.15069,1.2945 4.68904,0 -6.96164,-8.1555 c -0.39317,-0.4602 -0.9781,-0.791 -1.7548,-0.9924 -0.77673,-0.211 -1.68768,-0.3165 -2.73288,-0.3165 -1.04521,0 -1.96097,0.1055 -2.74726,0.3165 -0.78631,0.2014 -1.37603,0.5322 -1.76918,0.9924 l -6.96164,8.1555 4.74657,0 1.03562,-1.2945 11.30548,0 m -5.55205,-6.1418 c 0.0575,0 0.13903,0.019 0.24452,0.058 0.11505,0.029 0.22533,0.082 0.33082,0.1582 l 3.27945,3.9123 -7.91096,0 3.39452,-3.9842 c 0.10547,-0.096 0.27807,-0.1439 0.51781,-0.1439 l 0.14384,0"
         style=""
         id="path3047" />
      <path
         d="m 173.87291,1039.4223 c 1.26574,0 2.44519,0.086 3.53836,0.2589 1.09313,0.1726 2.04245,0.4219 2.84795,0.748 0.80546,0.3164 1.43833,0.7143 1.89863,1.1938 0.46025,0.4699 0.69039,1.0068 0.69041,1.611 -2e-5,0.3164 -0.0815,0.6328 -0.24452,0.9493 -0.15345,0.3164 -0.46509,0.6185 -0.93493,0.9061 0.45066,0.2781 0.75751,0.5754 0.92054,0.8918 0.17258,0.3165 0.25889,0.6329 0.25891,0.9493 -2e-5,0.4795 -0.15824,0.9493 -0.47466,1.4096 -0.31646,0.4603 -0.82947,0.8678 -1.53904,1.2226 -0.70961,0.3644 -1.63495,0.6521 -2.77603,0.863 -1.14111,0.2206 -2.53632,0.3309 -4.18562,0.3309 l -12.97398,0 0,-11.3343 12.97398,0 0,0 m -11.10411,0.9349 0,9.4644 11.10411,0 c 1.3041,0 2.40684,-0.082 3.30822,-0.2445 0.90136,-0.163 1.63012,-0.3788 2.1863,-0.6473 0.56574,-0.278 0.97327,-0.5897 1.22261,-0.9349 0.25888,-0.3452 0.38833,-0.7 0.38835,-1.0644 -2e-5,-0.1726 -0.0384,-0.3452 -0.11506,-0.5178 -0.0671,-0.1822 -0.18701,-0.3548 -0.35959,-0.5178 -0.17263,-0.163 -0.41235,-0.3116 -0.71918,-0.4459 -0.29728,-0.1438 -0.67605,-0.2733 -1.1363,-0.3883 0.48902,-0.1151 0.88217,-0.2446 1.17945,-0.3884 0.30683,-0.1438 0.54656,-0.2925 0.71918,-0.4459 0.17258,-0.163 0.28765,-0.326 0.3452,-0.489 0.0575,-0.1726 0.0863,-0.3404 0.0863,-0.5034 -2e-5,-0.4603 -0.18221,-0.8678 -0.54657,-1.2227 -0.3644,-0.3547 -0.86783,-0.652 -1.51028,-0.8917 -0.63289,-0.2493 -1.38563,-0.4363 -2.25822,-0.561 -0.86302,-0.1342 -1.79316,-0.2014 -2.79041,-0.2014 l -11.10411,0 m 12.83014,7.2206 0,0.1438 c -0.14385,0.058 -0.537,0.086 -1.17945,0.086 l -7.27809,0 0,-1.7404 7.30685,0 c 0.29725,0 0.57533,0.024 0.83425,0.072 0.25889,0.038 0.48423,0.096 0.67603,0.1726 0.20135,0.077 0.35957,0.1678 0.47466,0.2733 0.11505,0.096 0.17258,0.2014 0.1726,0.3165 -2e-5,0.2493 -0.20139,0.4746 -0.60411,0.676 l -0.40274,0 m -8.45754,-5.2069 7.30685,0 c 0.29725,0 0.57533,0.024 0.83425,0.072 0.25889,0.038 0.48423,0.096 0.67603,0.1726 0.20135,0.077 0.35957,0.1678 0.47466,0.2732 0.11505,0.096 0.17258,0.2014 0.1726,0.3165 -2e-5,0.2397 -0.19659,0.4411 -0.58973,0.6041 -0.38357,0.163 -0.91576,0.2445 -1.59657,0.2445 l -7.27809,0 0,-1.6829"
         style=""
         id="path3049" />
    </g>
  </g>
</svg>
