<?xml version="1.0" encoding="UTF-8" standalone="no"?>
<svg
   xmlns:dc="http://purl.org/dc/elements/1.1/"
   xmlns:cc="http://creativecommons.org/ns#"
   xmlns:rdf="http://www.w3.org/1999/02/22-rdf-syntax-ns#"
   xmlns:svg="http://www.w3.org/2000/svg"
   xmlns="http://www.w3.org/2000/svg"
   xmlns:sodipodi="http://sodipodi.sourceforge.net/DTD/sodipodi-0.dtd"
   xmlns:inkscape="http://www.inkscape.org/namespaces/inkscape"
   enable-background="new 0 0 500 500"
   height="24"
   id="Layer_1"
   version="1.1"
   viewBox="0 0 24 24"
   width="24"
   x="0px"
   xml:space="preserve"
   y="0px"
   inkscape:version="0.48.3.1 r9886"
   sodipodi:docname="phone_b.svg"><metadata
     id="metadata9"><rdf:RDF><cc:Work
         rdf:about=""><dc:format>image/svg+xml</dc:format><dc:type
           rdf:resource="http://purl.org/dc/dcmitype/StillImage" /><dc:title /></cc:Work></rdf:RDF></metadata><defs
     id="defs7" /><sodipodi:namedview
     pagecolor="#ffffff"
     bordercolor="#666666"
     borderopacity="1"
     objecttolerance="10"
     gridtolerance="10"
     guidetolerance="10"
     inkscape:pageopacity="0"
     inkscape:pageshadow="2"
     inkscape:window-width="1366"
     inkscape:window-height="744"
     id="namedview5"
     showgrid="false"
     inkscape:zoom="15.104"
     inkscape:cx="11.89869"
     inkscape:cy="17.136693"
     inkscape:window-x="0"
     inkscape:window-y="24"
     inkscape:window-maximized="1"
     inkscape:current-layer="Layer_1" /><path
     clip-rule="evenodd"
     d="m 12.146844,1.967715 c -3.5624199,0 -7.1334214,0.6375573 -8.4291241,1.9083167 -1.0750272,1.0542464 -1.4333838,2.9166997 -1.5541778,4.0959211 0,0 -0.016627,0.1165333 -0.016627,0.1666573 0,0.4624187 0.3749133,0.8332949 0.8332892,0.8332949 0.054185,0 2.0583293,-0.1625322 3.2666193,-0.2625069 0.029058,-0.0044 0.058374,-0.0084 0.087456,-0.016626 0.4500319,-0.0124 0.8126079,-0.379176 0.8126079,-0.8332894 l 0.00374,-1.6417279 c 0,-0.50832 0.4126575,-0.9167093 0.9210272,-0.9167093 H 16.22144 c 0.508465,0 0.921165,0.4083453 0.921165,0.9167093 l 0.0037,1.6417279 c 0,0.4541134 0.362525,0.820864 0.812515,0.8332894 0.02888,0.0084 0.05819,0.0124 0.0876,0.016626 1.208384,0.099933 3.212508,0.2625069 3.266482,0.2625069 0.458194,0 0.833383,-0.3708762 0.833383,-0.8332949 0,-0.05012 -0.01661,-0.1666573 -0.01661,-0.1666573 C 22.008827,6.7927314 21.650882,4.9303275 20.575811,3.8760317 19.279696,2.6052723 15.708695,1.967715 12.146276,1.967715 z m 0,10.833385 c -0.920839,0 -1.666671,0.745789 -1.666671,1.666629 0,0.92084 0.745832,1.66658 1.666671,1.66658 0.92084,0 1.666629,-0.74574 1.666629,-1.66658 0,-0.92084 -0.745789,-1.666629 -1.666629,-1.666629 z M 10.896867,9.051011 V 8.0093781 c 0,-0.5749573 -0.466726,-1.04164 -1.0416398,-1.04164 -0.5749138,0 -1.0416404,0.4667267 -1.0416404,1.04164 V 9.051011 l -5.6210682,6.004238 c -0.387338,0.379228 -0.6290699,0.908229 -0.6290699,1.491717 v 1.670848 c 0,0.92084 0.7458766,1.666583 1.6666726,1.666583 h 0.4166946 v 1.041773 c 0,0.574911 0.4667693,1.041545 1.0416772,1.041545 0.5749133,0 1.0416393,-0.466634 1.0416393,-1.041545 V 19.884397 H 17.563562 v 1.041773 c 0,0.574911 0.466588,1.041545 1.041726,1.041545 0.574907,0 1.041547,-0.466634 1.041547,-1.041545 v -1.041773 h 0.416687 c 0.92084,0 1.666629,-0.745743 1.666629,-1.666583 v -1.670848 c 0,-0.583534 -0.241689,-1.11254 -0.62907,-1.491717 L 15.480239,9.051011 V 8.0093781 c 0,-0.5749573 -0.466813,-1.04164 -1.041728,-1.04164 -0.574913,0 -1.041589,0.4667267 -1.041589,1.04164 V 9.051011 h -2.500055 z m 1.249977,2.083411 c 1.841679,0 3.333395,1.491672 3.333395,3.333307 0,1.84168 -1.491666,3.33344 -3.333395,3.33344 -1.841678,0 -3.3333006,-1.491717 -3.3333006,-3.33344 0,-1.84168 1.4916226,-3.333307 3.3333006,-3.333307 z"
     id="path3"
     inkscape:connector-curvature="0"
     style="fill:#010101;fill-rule:evenodd" /></svg>