<?xml version="1.0" encoding="UTF-8" standalone="no"?>
<svg
   xmlns:dc="http://purl.org/dc/elements/1.1/"
   xmlns:cc="http://creativecommons.org/ns#"
   xmlns:rdf="http://www.w3.org/1999/02/22-rdf-syntax-ns#"
   xmlns:svg="http://www.w3.org/2000/svg"
   xmlns="http://www.w3.org/2000/svg"
   xmlns:sodipodi="http://sodipodi.sourceforge.net/DTD/sodipodi-0.dtd"
   xmlns:inkscape="http://www.inkscape.org/namespaces/inkscape"
   enable-background="new 0 0 500 500"
   height="16"
   id="Layer_1"
   version="1.1"
   viewBox="0 0 16 16"
   width="16"
   x="0px"
   xml:space="preserve"
   y="0px"
   inkscape:version="0.48.3.1 r9886"
   sodipodi:docname="phone.svg"><metadata
     id="metadata9"><rdf:RDF><cc:Work
         rdf:about=""><dc:format>image/svg+xml</dc:format><dc:type
           rdf:resource="http://purl.org/dc/dcmitype/StillImage" /><dc:title></dc:title></cc:Work></rdf:RDF></metadata><defs
     id="defs7" /><sodipodi:namedview
     pagecolor="#ffffff"
     bordercolor="#666666"
     borderopacity="1"
     objecttolerance="10"
     gridtolerance="10"
     guidetolerance="10"
     inkscape:pageopacity="0"
     inkscape:pageshadow="2"
     inkscape:window-width="1366"
     inkscape:window-height="744"
     id="namedview5"
     showgrid="false"
     inkscape:zoom="15.104"
     inkscape:cx="11.89869"
     inkscape:cy="17.136693"
     inkscape:window-x="0"
     inkscape:window-y="24"
     inkscape:window-maximized="1"
     inkscape:current-layer="Layer_1" /><path
     clip-rule="evenodd"
     d="m 8.0578791,0.42428263 c -2.6718154,0 -5.3500666,0.47816798 -6.3218436,1.43123747 -0.80627041,0.7906844 -1.07503788,2.187525 -1.16563338,3.0719409 0,0 -0.0124706,0.087398 -0.0124706,0.1249925 0,0.3468149 0.28118494,0.6249715 0.62496688,0.6249715 0.040639,0 1.543747,-0.1218985 2.4499645,-0.19688 0.021794,-0.00329 0.04378,-0.00628 0.065592,-0.01247 0.337524,-0.00934 0.609456,-0.2843819 0.609456,-0.6249668 l 0.0028,-1.2312965 c 0,-0.38124 0.3094931,-0.6875315 0.6907704,-0.6875315 h 6.1123397 c 0.381348,0 0.690873,0.3062586 0.690873,0.6875315 l 0.0028,1.2312965 c 0,0.3405849 0.271894,0.6156479 0.609386,0.6249668 0.02166,0.00628 0.04364,0.00934 0.0657,0.01247 0.906288,0.074945 2.409381,0.19688 2.449862,0.19688 0.343645,0 0.625037,-0.2781566 0.625037,-0.6249715 0,-0.037595 -0.01246,-0.1249925 -0.01246,-0.1249925 C 15.454366,4.0430451 15.185908,2.6462421 14.379604,1.8555201 13.407518,0.90245061 10.729267,0.42428263 8.0574526,0.42428263 z m 0,8.12503907 c -0.6906295,0 -1.250004,0.5593421 -1.250004,1.249972 0,0.6906303 0.5593745,1.2499343 1.250004,1.2499343 0.6906295,0 1.2499715,-0.559304 1.2499715,-1.2499343 0,-0.6906299 -0.559342,-1.249972 -1.2499715,-1.249972 z M 7.1203961,5.736755 V 4.9555301 c 0,-0.4312179 -0.3500444,-0.78123 -0.78123,-0.78123 -0.4311854,0 -0.7812304,0.3500445 -0.7812304,0.78123 V 5.736755 l -4.2158012,4.503179 c -0.2905035,0.28442 -0.47180241,0.681171 -0.47180241,1.118787 v 1.253136 c 0,0.69063 0.55940741,1.249937 1.25000441,1.249937 h 0.312521 v 0.78133 c 0,0.431184 0.350077,0.781159 0.7812579,0.781159 0.431185,0 0.7812295,-0.349975 0.7812295,-0.781159 v -0.78133 h 8.1250721 v 0.78133 c 0,0.431184 0.349941,0.781159 0.781295,0.781159 0.43118,0 0.78116,-0.349975 0.78116,-0.781159 v -0.78133 h 0.312516 c 0.69063,0 1.249971,-0.559307 1.249971,-1.249937 v -1.253136 c 0,-0.43765 -0.181266,-0.834405 -0.471803,-1.118787 L 10.557925,5.736755 V 4.9555301 c 0,-0.4312179 -0.35011,-0.78123 -0.7812955,-0.78123 -0.4311854,0 -0.7811919,0.3500445 -0.7811919,0.78123 V 5.736755 H 7.1203961 z m 0.937483,1.5625579 c 1.3812589,0 2.5000459,1.1187539 2.5000459,2.4999808 0,1.3812593 -1.1187494,2.5000793 -2.5000459,2.5000793 -1.3812589,0 -2.4999759,-1.118787 -2.4999759,-2.5000793 0,-1.3812594 1.118717,-2.4999808 2.4999759,-2.4999808 z"
     id="path3"
     inkscape:connector-curvature="0"
     style="fill:#010101;fill-rule:evenodd" /></svg>