<?xml version="1.0" encoding="UTF-8" standalone="no"?>
<svg
   xmlns:dc="http://purl.org/dc/elements/1.1/"
   xmlns:cc="http://creativecommons.org/ns#"
   xmlns:rdf="http://www.w3.org/1999/02/22-rdf-syntax-ns#"
   xmlns:svg="http://www.w3.org/2000/svg"
   xmlns="http://www.w3.org/2000/svg"
   xmlns:sodipodi="http://sodipodi.sourceforge.net/DTD/sodipodi-0.dtd"
   xmlns:inkscape="http://www.inkscape.org/namespaces/inkscape"
   enable-background="new 0 0 24 24"
   height="16"
   id="Layer_1"
   version="1.1"
   viewBox="0 0 16 16"
   width="16"
   x="0px"
   xml:space="preserve"
   y="0px"
   inkscape:version="0.48.3.1 r9886"
   sodipodi:docname="place.svg"><metadata
     id="metadata9"><rdf:RDF><cc:Work
         rdf:about=""><dc:format>image/svg+xml</dc:format><dc:type
           rdf:resource="http://purl.org/dc/dcmitype/StillImage" /></cc:Work></rdf:RDF></metadata><defs
     id="defs7" /><sodipodi:namedview
     pagecolor="#ffffff"
     bordercolor="#666666"
     borderopacity="1"
     objecttolerance="10"
     gridtolerance="10"
     guidetolerance="10"
     inkscape:pageopacity="0"
     inkscape:pageshadow="2"
     inkscape:window-width="1366"
     inkscape:window-height="744"
     id="namedview5"
     showgrid="false"
     inkscape:zoom="19.666667"
     inkscape:cx="9.0664226"
     inkscape:cy="9.2861269"
     inkscape:window-x="0"
     inkscape:window-y="24"
     inkscape:window-maximized="1"
     inkscape:current-layer="Layer_1" /><path
     d="m 8.0142539,8.2913956 c -1.3221879,0 -2.3951782,-1.0798603 -2.3951782,-2.4120413 0,-1.3334307 1.0729903,-2.4126663 2.3951782,-2.4126663 1.3221893,0 2.3951791,1.0798602 2.3951791,2.4126663 0,1.3315568 -1.0729898,2.4120413 -2.3951791,2.4120413 m 0,-7.73202343 c -2.9279262,0 -5.3012449,2.39018203 -5.3012449,5.33934283 0,2.7855268 2.4007995,6.378607 4.0040396,8.127992 0.5989507,0.652664 1.2965814,1.532665 1.2965814,1.532665 0,0 0.7494687,-0.884998 1.392139,-1.557021 1.60199,-1.676313 3.909106,-5.0420547 3.909106,-8.103636 0,-2.9491608 -2.37332,-5.33934283 -5.3006211,-5.33934283"
     id="path3"
     inkscape:connector-curvature="0" /></svg>