<?xml version="1.0" encoding="UTF-8" standalone="no"?>
<svg
   xmlns:dc="http://purl.org/dc/elements/1.1/"
   xmlns:cc="http://creativecommons.org/ns#"
   xmlns:rdf="http://www.w3.org/1999/02/22-rdf-syntax-ns#"
   xmlns:svg="http://www.w3.org/2000/svg"
   xmlns="http://www.w3.org/2000/svg"
   xmlns:sodipodi="http://sodipodi.sourceforge.net/DTD/sodipodi-0.dtd"
   xmlns:inkscape="http://www.inkscape.org/namespaces/inkscape"
   enable-background="new 0 0 24 24"
   height="24"
   id="Layer_1"
   version="1.1"
   viewBox="0 0 24 24"
   width="24"
   x="0px"
   xml:space="preserve"
   y="0px"
   inkscape:version="0.48.3.1 r9886"
   sodipodi:docname="place_b.svg"><metadata
     id="metadata9"><rdf:RDF><cc:Work
         rdf:about=""><dc:format>image/svg+xml</dc:format><dc:type
           rdf:resource="http://purl.org/dc/dcmitype/StillImage" /><dc:title></dc:title></cc:Work></rdf:RDF></metadata><defs
     id="defs7" /><sodipodi:namedview
     pagecolor="#ffffff"
     bordercolor="#666666"
     borderopacity="1"
     objecttolerance="10"
     gridtolerance="10"
     guidetolerance="10"
     inkscape:pageopacity="0"
     inkscape:pageshadow="2"
     inkscape:window-width="1366"
     inkscape:window-height="744"
     id="namedview5"
     showgrid="false"
     inkscape:zoom="19.666667"
     inkscape:cx="9.0664226"
     inkscape:cy="13.353924"
     inkscape:window-x="0"
     inkscape:window-y="24"
     inkscape:window-maximized="1"
     inkscape:current-layer="Layer_1" /><path
     d="m 12.115287,12.340352 c -1.939209,0 -3.5129282,-1.583796 -3.5129282,-3.5376618 0,-1.9556973 1.5737192,-3.5385768 3.5129282,-3.5385768 1.939211,0 3.512929,1.5837947 3.512929,3.5385768 0,1.9529508 -1.573718,3.5376618 -3.512929,3.5376618 m 0,-11.3403017 c -4.2942919,0 -7.7751593,3.5055999 -7.7751593,7.8310361 0,4.0854396 3.5211726,9.3552906 5.8725913,11.9210546 0.878461,0.957241 1.901653,2.247909 1.901653,2.247909 0,0 1.099221,-1.297997 2.041804,-2.283631 2.349585,-2.458592 5.733355,-7.395013 5.733355,-11.8853326 0,-4.3254362 -3.480869,-7.8310361 -7.774244,-7.8310361"
     id="path3"
     inkscape:connector-curvature="0"
     style="fill:#ffffff" /></svg>