<?xml version="1.0" encoding="UTF-8" standalone="no"?>
<!-- Creator: CorelDRAW -->

<svg
   xmlns:dc="http://purl.org/dc/elements/1.1/"
   xmlns:cc="http://creativecommons.org/ns#"
   xmlns:rdf="http://www.w3.org/1999/02/22-rdf-syntax-ns#"
   xmlns:svg="http://www.w3.org/2000/svg"
   xmlns="http://www.w3.org/2000/svg"
   xmlns:xlink="http://www.w3.org/1999/xlink"
   xmlns:sodipodi="http://sodipodi.sourceforge.net/DTD/sodipodi-0.dtd"
   xmlns:inkscape="http://www.inkscape.org/namespaces/inkscape"
   xml:space="preserve"
   width="170"
   height="105"
   style="fill-rule:evenodd"
   viewBox="0 0 47977.777 29634.862"
   id="svg2"
   sodipodi:version="0.32"
   inkscape:version="0.48.3.1 r9886"
   sodipodi:docname="symbol_stmnet.svg"
   inkscape:output_extension="org.inkscape.output.svg.inkscape"
   version="1.1"><metadata
   id="metadata113"><rdf:RDF><cc:Work
       rdf:about=""><dc:format>image/svg+xml</dc:format><dc:type
         rdf:resource="http://purl.org/dc/dcmitype/StillImage" /><dc:title></dc:title></cc:Work></rdf:RDF></metadata><sodipodi:namedview
   inkscape:window-height="744"
   inkscape:window-width="1366"
   inkscape:pageshadow="2"
   inkscape:pageopacity="0.0"
   guidetolerance="10.0"
   gridtolerance="10.0"
   objecttolerance="10.0"
   borderopacity="1.0"
   bordercolor="#666666"
   pagecolor="#ffffff"
   id="base"
   inkscape:zoom="3.1041988"
   inkscape:cx="69.611128"
   inkscape:cy="35.877711"
   inkscape:window-x="0"
   inkscape:window-y="24"
   inkscape:current-layer="svg2"
   showgrid="false"
   inkscape:window-maximized="1" />
 <defs
   id="defs4"><linearGradient
   id="linearGradient3212"><stop
     style="stop-color:#005500;stop-opacity:1;"
     offset="0"
     id="stop3214" /><stop
     style="stop-color:#00aa00;stop-opacity:1;"
     offset="1"
     id="stop3216" /></linearGradient>
  <style
   type="text/css"
   id="style6">
   
    .str0 {stroke:#1F1A17;stroke-width:76}
    .str2 {stroke:#1F1A17;stroke-width:281}
    .str1 {stroke:#72706F;stroke-width:352}
    .str3 {stroke:#1F1A17;stroke-width:704}
    .fil3 {fill:none}
    .fil0 {fill:#BFD8FF}
    .fil1 {fill:#F4E2BA}
    .fil2 {fill:#FFF3E3}
    .fil4 {fill:#00FF00}
    .fil5 {fill:#FF9900}
    .fil6 {fill:#Ff0000}
    .fil7 {fill:#00FFFF}
    .fil8 {fill:#FFFF00}
   
  </style>
 
  
  
  
  
  
  
  
  
  
  
  
  
  
  
  
  
  
  
  
  
  
  
  
  
  
  
  
 <linearGradient
   inkscape:collect="always"
   xlink:href="#linearGradient3212"
   id="linearGradient3222"
   gradientUnits="userSpaceOnUse"
   gradientTransform="matrix(0.38746802,0,0,0.38746802,58214.736,57087.807)"
   x1="55960.086"
   y1="147769.98"
   x2="55905.457"
   y2="154556.08" /><linearGradient
   inkscape:collect="always"
   xlink:href="#linearGradient3212"
   id="linearGradient3230"
   gradientUnits="userSpaceOnUse"
   gradientTransform="matrix(0.38746802,0,0,0.38746802,60398.064,48991.298)"
   x1="55960.086"
   y1="147769.98"
   x2="55905.457"
   y2="154556.08" /><linearGradient
   inkscape:collect="always"
   xlink:href="#linearGradient3212"
   id="linearGradient3234"
   gradientUnits="userSpaceOnUse"
   gradientTransform="matrix(0.38746802,0,0,0.38746802,61307.784,66548.896)"
   x1="55960.086"
   y1="147769.98"
   x2="55905.457"
   y2="154556.08" /><linearGradient
   inkscape:collect="always"
   xlink:href="#linearGradient3212"
   id="linearGradient3238"
   gradientUnits="userSpaceOnUse"
   gradientTransform="matrix(0.38746802,0,0,0.38746802,26010.644,63819.736)"
   x1="55960.086"
   y1="147769.98"
   x2="55905.457"
   y2="154556.08" /><linearGradient
   inkscape:collect="always"
   xlink:href="#linearGradient3212"
   id="linearGradient3242"
   gradientUnits="userSpaceOnUse"
   gradientTransform="matrix(0.38746802,0,0,0.38746802,50755.031,50628.794)"
   x1="55725.301"
   y1="149530.88"
   x2="55905.457"
   y2="154556.08" /><linearGradient
   inkscape:collect="always"
   xlink:href="#linearGradient3212"
   id="linearGradient3246"
   gradientUnits="userSpaceOnUse"
   gradientTransform="matrix(0.38746802,0,0,0.38746802,51892.181,69869.374)"
   x1="55960.086"
   y1="147769.98"
   x2="55905.457"
   y2="154556.08" /><linearGradient
   inkscape:collect="always"
   xlink:href="#linearGradient3212"
   id="linearGradient3250"
   gradientUnits="userSpaceOnUse"
   gradientTransform="matrix(0.38746802,0,0,0.38746802,48355.644,65207.059)"
   x1="55960.086"
   y1="147769.98"
   x2="55905.457"
   y2="154556.08" /><linearGradient
   inkscape:collect="always"
   xlink:href="#linearGradient3212"
   id="linearGradient3254"
   gradientUnits="userSpaceOnUse"
   gradientTransform="matrix(0.38746802,0,0,0.38746802,74407.754,55541.283)"
   x1="55960.086"
   y1="147769.98"
   x2="55905.457"
   y2="154556.08" /><linearGradient
   inkscape:collect="always"
   xlink:href="#linearGradient3212"
   id="linearGradient3258"
   gradientUnits="userSpaceOnUse"
   gradientTransform="matrix(0.38746802,0,0,0.38746802,77227.886,63455.848)"
   x1="55960.086"
   y1="147769.98"
   x2="55905.457"
   y2="154556.08" /><linearGradient
   inkscape:collect="always"
   xlink:href="#linearGradient3212"
   id="linearGradient3262"
   gradientUnits="userSpaceOnUse"
   gradientTransform="matrix(0.38746802,0,0,0.38746802,69950.126,49901.018)"
   x1="55960.086"
   y1="147769.98"
   x2="55905.457"
   y2="154556.08" /><linearGradient
   inkscape:collect="always"
   xlink:href="#linearGradient3212"
   id="linearGradient3266"
   gradientUnits="userSpaceOnUse"
   gradientTransform="matrix(0.38746802,0,0,0.38746802,84414.675,59544.051)"
   x1="55960.086"
   y1="147769.98"
   x2="55905.457"
   y2="154556.08" /><linearGradient
   inkscape:collect="always"
   xlink:href="#linearGradient3212"
   id="linearGradient3270"
   gradientUnits="userSpaceOnUse"
   gradientTransform="matrix(0.38746802,0,0,0.38746802,75044.559,47808.662)"
   x1="55960.086"
   y1="147769.98"
   x2="55905.457"
   y2="154556.08" /><linearGradient
   inkscape:collect="always"
   xlink:href="#linearGradient3212"
   id="linearGradient3274"
   gradientUnits="userSpaceOnUse"
   gradientTransform="matrix(0.38746802,0,0,0.38746802,82777.179,56360.03)"
   x1="55960.086"
   y1="147769.98"
   x2="55905.457"
   y2="154556.08" /><linearGradient
   inkscape:collect="always"
   xlink:href="#linearGradient3212"
   id="linearGradient3278"
   gradientUnits="userSpaceOnUse"
   gradientTransform="matrix(0.38746802,0,0,0.38746802,86870.919,54631.563)"
   x1="55960.086"
   y1="147769.98"
   x2="55905.457"
   y2="154556.08" /><linearGradient
   inkscape:collect="always"
   xlink:href="#linearGradient3212"
   id="linearGradient3282"
   gradientUnits="userSpaceOnUse"
   gradientTransform="matrix(0.38746802,0,0,0.38746802,86598.003,51174.627)"
   x1="55960.086"
   y1="147769.98"
   x2="55905.457"
   y2="154556.08" /><linearGradient
   inkscape:collect="always"
   xlink:href="#linearGradient3212"
   id="linearGradient3290"
   gradientUnits="userSpaceOnUse"
   gradientTransform="matrix(0.38746802,0,0,0.38746802,84505.647,53630.871)"
   x1="55960.086"
   y1="147769.98"
   x2="55905.457"
   y2="154556.08" /><linearGradient
   inkscape:collect="always"
   xlink:href="#linearGradient3212"
   id="linearGradient3294"
   gradientUnits="userSpaceOnUse"
   gradientTransform="matrix(0.38746802,0,0,0.38746802,77591.775,44715.614)"
   x1="55960.086"
   y1="147769.98"
   x2="55905.457"
   y2="154556.08" /><linearGradient
   inkscape:collect="always"
   xlink:href="#linearGradient3212"
   id="linearGradient3298"
   gradientUnits="userSpaceOnUse"
   gradientTransform="matrix(0.38746802,0,0,0.38746802,84141.759,49173.243)"
   x1="55960.086"
   y1="147769.98"
   x2="55905.457"
   y2="154556.08" /><linearGradient
   inkscape:collect="always"
   xlink:href="#linearGradient3212"
   id="linearGradient3302"
   gradientUnits="userSpaceOnUse"
   gradientTransform="matrix(0.38746802,0,0,0.38746802,81321.627,48445.467)"
   x1="55960.086"
   y1="147769.98"
   x2="55905.457"
   y2="154556.08" /><linearGradient
   inkscape:collect="always"
   xlink:href="#linearGradient3212"
   id="linearGradient3306"
   gradientUnits="userSpaceOnUse"
   gradientTransform="matrix(0.38746802,0,0,0.38746802,76500.111,41895.482)"
   x1="55960.086"
   y1="147769.98"
   x2="55905.457"
   y2="154556.08" /><linearGradient
   inkscape:collect="always"
   xlink:href="#linearGradient3212"
   id="linearGradient3310"
   gradientUnits="userSpaceOnUse"
   gradientTransform="matrix(0.38746802,0,0,0.38746802,43932.13,67367.644)"
   x1="55960.086"
   y1="147769.98"
   x2="55905.457"
   y2="154556.08" /><linearGradient
   inkscape:collect="always"
   xlink:href="#linearGradient3212"
   id="linearGradient3314"
   gradientUnits="userSpaceOnUse"
   gradientTransform="matrix(0.38746802,0,0,0.38746802,46206.43,66366.952)"
   x1="55960.086"
   y1="147769.98"
   x2="55905.457"
   y2="154556.08" /><linearGradient
   inkscape:collect="always"
   xlink:href="#linearGradient3212"
   id="linearGradient3318"
   gradientUnits="userSpaceOnUse"
   gradientTransform="matrix(0.38746802,0,0,0.38746802,56258.838,68413.822)"
   x1="55960.086"
   y1="147769.98"
   x2="55905.457"
   y2="154556.08" /><linearGradient
   inkscape:collect="always"
   xlink:href="#linearGradient3212"
   id="linearGradient3326"
   gradientUnits="userSpaceOnUse"
   gradientTransform="matrix(0.38746802,0,0,0.38746802,36244.996,50401.364)"
   x1="55725.301"
   y1="149530.88"
   x2="55905.457"
   y2="154556.08" /><linearGradient
   inkscape:collect="always"
   xlink:href="#linearGradient3212"
   id="linearGradient3330"
   gradientUnits="userSpaceOnUse"
   gradientTransform="matrix(0.38746802,0,0,0.38746802,41130.84,49298.663)"
   x1="55725.301"
   y1="149530.88"
   x2="55905.457"
   y2="154556.08" /><linearGradient
   inkscape:collect="always"
   xlink:href="#linearGradient3212"
   id="linearGradient3334"
   gradientUnits="userSpaceOnUse"
   gradientTransform="matrix(0.38746802,0,0,0.38746802,61216.812,37801.741)"
   x1="55960.086"
   y1="147769.98"
   x2="55905.457"
   y2="154556.08" /><linearGradient
   inkscape:collect="always"
   xlink:href="#linearGradient3212"
   id="linearGradient3338"
   gradientUnits="userSpaceOnUse"
   gradientTransform="matrix(0.38746802,0,0,0.38746802,64218.888,38529.517)"
   x1="55960.086"
   y1="147769.98"
   x2="55905.457"
   y2="154556.08" /><linearGradient
   inkscape:collect="always"
   xlink:href="#linearGradient3212"
   id="linearGradient3346"
   gradientUnits="userSpaceOnUse"
   gradientTransform="matrix(0.38746802,0,0,0.38746802,42749.494,39894.097)"
   x1="55960.086"
   y1="147769.98"
   x2="55905.457"
   y2="154556.08" /><linearGradient
   inkscape:collect="always"
   xlink:href="#linearGradient3212"
   id="linearGradient3350"
   gradientUnits="userSpaceOnUse"
   gradientTransform="matrix(0.38746802,0,0,0.38746802,44659.906,43714.921)"
   x1="55960.086"
   y1="147769.98"
   x2="55905.457"
   y2="154556.08" /><linearGradient
   inkscape:collect="always"
   xlink:href="#linearGradient3212"
   id="linearGradient3354"
   gradientUnits="userSpaceOnUse"
   gradientTransform="matrix(0.38746802,0,0,0.38746802,39019.642,42623.257)"
   x1="55960.086"
   y1="147769.98"
   x2="55905.457"
   y2="154556.08" /><linearGradient
   inkscape:collect="always"
   xlink:href="#linearGradient3212"
   id="linearGradient3358"
   gradientUnits="userSpaceOnUse"
   gradientTransform="matrix(0.38746802,0,0,0.38746802,42031.417,43509.24)"
   x1="55725.301"
   y1="149530.88"
   x2="55905.457"
   y2="154556.08" /><linearGradient
   inkscape:collect="always"
   xlink:href="#linearGradient3212"
   id="linearGradient3362"
   gradientUnits="userSpaceOnUse"
   gradientTransform="matrix(0.38746802,0,0,0.38746802,40498.052,37128.039)"
   x1="55960.086"
   y1="147769.98"
   x2="55905.457"
   y2="154556.08" /></defs>
 
 
 <g
   id="Destaque"
   transform="translate(0,-164375.14)">
 </g>
 
 <g
   id="Regiões geoeconômicas"
   transform="translate(0,-164375.14)">
 </g>
 
 
 
 
 
 



















<path
   style="fill:#ffffff;fill-opacity:1;fill-rule:nonzero;stroke:#ffffff;stroke-width:220.5821228;stroke-linecap:square;stroke-linejoin:miter;stroke-miterlimit:4;stroke-opacity:1;stroke-dasharray:none;stroke-dashoffset:0"
   d="m 21304.494,26916.544 c -1412.053,-174.75 -2741.561,-862.86 -3783.734,-1958.345 -706.129,-742.248 -1173.136,-1557.176 -1492.263,-2603.98 -163.564,-536.528 -180.942,-696.352 -181.933,-1673.154 -0.918,-897.699 23.218,-1167.655 142.984,-1599.588 598.604,-2158.88 2155.982,-3768.649 4336.231,-4482.102 536.035,-175.408 651.336,-188.001 1754.939,-191.664 1114.67,-3.698 1215.426,6.845 1788.684,187.238 2239.076,704.584 3817.686,2369.89 4393.617,4634.92 192.256,756.094 178.191,2196.813 -28.943,2965.381 -295.166,1095.192 -795.829,1986.082 -1582.068,2815.152 -1019.133,1074.654 -2316.77,1726.766 -3795.069,1907.173 -680.207,83.01 -874.371,82.882 -1552.445,-1.034 l 0,0 z"
   id="path3101"
   inkscape:connector-curvature="0" /><path
   id="path3070"
   d="m 24879.953,12833.305 v -2421.892 c 2105.309,-427.3357 3691.904,-2288.9792 3691.904,-4521.6607 0,-2549.2602 -2066.542,-4614.8755 -4614.883,-4614.8755 -2548.333,0 -4614.875,2065.6153 -4614.875,4614.8755 0,2232.6815 1586.594,4094.325 3691.902,4521.6607 v 1992.707 c -303.659,-33.23 -611.01,-53.533 -922.976,-53.533 -1962.247,0 -3761.127,683.003 -5182.511,1820.111 L 11191.297,8432.5535 c 481.791,-730.0766 766.991,-1602.2855 766.991,-2542.8012 0,-2549.2602 -2066.5424,-4614.8755 -4614.8804,-4614.8755 -2548.3339,0 -4614.8767,2065.6153 -4614.8767,4614.8755 0,2232.6815 1585.6702,4094.325 3691.9035,4521.6607 v 7569.327 c -2106.2333,427.34 -3691.9035,2288.979 -3691.9035,4522.582 0,2550.186 2066.5428,4614.881 4614.8767,4614.881 2548.338,0 4614.8804,-2064.695 4614.8804,-4614.881 0,-2233.603 -1585.672,-4095.242 -3691.9026,-4521.656 v -7569.33 c 588.858,-119.987 1134.3385,-353.499 1618.902,-673.7717 l 5738.1396,5738.1447 c -1136.184,1419.536 -1819.186,3218.417 -1819.186,5180.662 0,4588.114 3716.824,8304.935 8306.784,8306.785 4588.113,-1.85 8304.938,-3718.671 8306.784,-8306.785 -1.846,-3617.142 -2313.9,-6683.27 -5537.856,-7824.066 z m -2768.928,14176.912 c -3508.231,-8.308 -6346.382,-2846.461 -6354.689,-6352.846 8.307,-3508.232 2846.458,-6346.38 6354.689,-6353.766 3506.386,7.386 6344.535,2845.534 6352.844,6353.766 -8.309,3506.385 -2846.458,6344.538 -6352.844,6352.846 z"
   inkscape:connector-curvature="0"
   style="fill:#cccccc" /><path
   inkscape:label="#path4052"
   inkscape:export-ydpi="90"
   inkscape:export-xdpi="90"
   inkscape:export-filename="/home/johnatas/Empresa/NibbleLab/Projetos/2ª Igreja Frutal/mdl3.png"
   sodipodi:nodetypes="cscssccssscssccccccccccsscsscssssccscccccccsssccsccsscssscscsssssscssscssssscsccscssssssscccssscccccsscscscscccccsscsscscscscsccsssssccsscsscscssccsccccsscscccsscccscssscscccsccsccccssssssscccsccsssscsscsscssscsscsscsssscsscsscccsssssssssssscsssssssssssssssccscsccsscsssscsssssscscscssccccsssscssssccsssssssccsscsscsscssscssscssscsssssscsssssscsssssssscsscccscscsssc"
   style="fill:#0f472e;fill-opacity:1"
   d="m 21744.015,24759.188 c -30.535,-11.825 -113.773,-22.545 -209.244,-27.034 -170.843,-7.978 -192.083,-13.845 -223.316,-61.521 -19.809,-30.189 -18.055,-35.162 57.073,-162.125 42.61,-71.995 77.485,-139.136 77.485,-149.213 0,-27.077 -109.923,-186.01 -142.798,-206.444 -15.613,-9.714 -65.502,-24.409 -110.822,-32.626 -117.171,-21.28 -118.899,-22.052 -144.19,-64.873 -19.135,-32.411 -22.253,-62 -19.033,-180.744 4.323,-159.208 -1.174,-176.491 -74.956,-234.934 -47.755,-37.8 -341.625,-201.664 -373.237,-208.099 -27.927,-5.707 -11.926,35.088 69.078,176.293 101.244,176.449 136.541,274.192 136.541,378.081 0,94.66 -6.81,101.78 -172.445,180.457 l -98.376,46.703 -400.362,0.852 -400.379,0.886 -101.422,63.221 -101.473,63.255 -212.827,4.007 -212.822,4.008 -166.521,-77.502 -166.552,-77.503 -286.39,-12.222 c -157.507,-6.721 -391.97,-23.841 -520.98,-38.129 l -234.618,-25.894 -139.484,-77.181 c -76.737,-42.452 -178.014,-99.48 -225.089,-126.751 l -85.603,-49.503 0,-130.11 c 0,-125.828 -1.304,-131.936 -40.232,-186.496 -79.847,-111.901 -98.355,-126.145 -163.907,-126.145 -87.349,0 -110.457,-33.43 -157.039,-227.323 l -37.643,-156.623 -75.422,-64.796 c -41.497,-35.658 -98.436,-85.551 -126.525,-110.891 l -51.086,-46.094 79.323,-40.027 79.32,-40.067 -3.858,-59.575 -3.835,-59.572 -81.365,-21.894 c -44.759,-12.064 -85.578,-26.387 -90.738,-31.849 -13.221,-14.005 -78.352,-309.002 -131.213,-594.115 -24.654,-133.031 -59.866,-281.392 -78.241,-329.756 -32.033,-84.223 -33.144,-95.716 -27.318,-278.121 l 6.116,-190.295 69.837,-139.424 c 38.435,-76.689 112.931,-245.005 165.556,-374.029 52.62,-129.021 107.41,-260.268 121.744,-291.678 18.566,-40.667 26.134,-83.653 26.32,-149.818 0.338,-103.04 -4.975,-116.838 -84.442,-220.613 -51.845,-67.619 -55.992,-78.956 -63.199,-172.523 -5.037,-65.2 -3.01,-103.037 5.769,-108.468 7.418,-4.609 41.118,2.553 74.857,15.868 61.242,24.118 61.489,24.118 130.906,-3.806 57.942,-23.265 83.604,-45.165 153.902,-131.083 54.485,-66.615 92.137,-126.999 106.344,-170.424 55.905,-170.906 98.181,-276.498 110.7,-276.498 7.504,0 46.465,28.532 86.571,63.417 40.08,34.848 80.977,63.379 90.893,63.379 9.877,0 50.276,-58.48 89.753,-129.951 51.455,-93.252 101.337,-161.075 176.381,-239.911 105.82,-111.175 108.974,-113.039 239.795,-142.382 26.956,-6.066 52.331,-39.297 126.787,-166.132 51.186,-87.211 100.878,-158.563 110.447,-158.563 9.549,0 36.878,17.119 60.689,38.037 23.838,20.928 52.393,38.048 63.45,38.048 31.022,0 296.029,-155.246 296.029,-173.423 0,-8.817 -18.187,-41.884 -40.416,-73.411 l -40.424,-57.346 15.368,-179.485 c 18.225,-212.76 46.402,-307.017 150.423,-503.056 110.289,-207.904 124.437,-227.087 192.485,-261.566 33.987,-17.241 65.075,-39.906 69.101,-50.388 4.025,-10.483 1.665,-54.066 -5.226,-96.885 -6.891,-42.821 -9.063,-88.796 -4.827,-102.146 9.905,-31.208 193.606,-288.406 270.268,-378.368 39.072,-45.853 67.949,-96.968 86.041,-152.173 18.738,-57.229 33.388,-82.636 46.934,-81.505 10.842,0.893 68.259,30.841 127.606,66.57 59.342,35.696 121.003,64.878 137.039,64.835 16.018,0 82.442,-20.19 147.583,-44.759 111.599,-42.088 130.046,-45.124 319.429,-52.606 110.558,-4.338 206.337,-11.301 212.827,-15.466 6.496,-4.126 38.714,-49.256 71.615,-100.242 32.888,-50.994 72.148,-97.786 87.219,-103.975 15.091,-6.186 100.985,-23.188 190.905,-37.797 185.156,-30.07 169.541,-23.596 356.441,-147.643 l 139.489,-92.599 331.343,-45.001 331.323,-44.965 307.544,184.063 c 169.166,101.223 312.259,184.065 318.006,184.065 5.736,0 171.898,-45.977 369.257,-102.11 197.354,-56.129 384.513,-104.981 415.887,-108.582 52.406,-5.95 70.429,0.807 220.976,83.61 l 163.938,90.089 397.932,62.002 397.917,62.044 84.883,69.855 c 136.206,112.059 167.305,144.315 167.305,173.377 0,93.205 30.935,401.631 41.643,415.148 7.096,8.946 68.301,44.72 136.012,79.487 l 123.112,63.253 85.039,178.681 c 71.877,151.081 90.757,180.865 122.239,192.76 46.361,17.489 46.743,32.625 4.555,181.718 l -32.875,116.195 61.324,118.419 61.303,118.419 152.676,12.71 152.658,12.667 144.126,82.434 c 139.778,79.93 146.233,85.558 213.687,186.819 l 69.559,104.408 191.626,74.957 c 237.107,92.677 274.597,105.061 431.047,142.337 120.118,28.615 126.63,31.931 157.021,80.086 17.452,27.604 47.354,83.293 66.462,123.724 l 34.748,73.494 -36.264,206.24 c -19.937,113.439 -36.328,217.697 -36.412,231.619 -0.231,13.958 39.66,71.021 88.318,126.833 48.641,55.774 88.466,109.997 88.505,120.444 0,10.479 -16.833,76.124 -37.509,145.857 -20.67,69.734 -37.698,130.639 -37.826,135.292 -0.229,4.653 25.454,38.571 56.852,75.322 31.387,36.79 57.073,73.093 57.073,80.733 0,7.651 -28.531,92.233 -63.412,188.035 -34.873,95.789 -63.406,184.501 -63.406,197.21 0,14.04 66.738,78.836 171.199,166.251 94.155,78.762 171.184,148.166 171.184,154.245 0,6.104 -28.446,26.745 -63.217,45.933 -34.777,19.18 -63.311,42.042 -63.399,50.829 -0.23,8.818 26.03,64.469 58.088,123.757 51.815,95.834 59.042,119.229 65.37,211.304 l 7.079,103.52 104.416,115.625 c 89.609,99.235 121.05,147.638 221.703,341.455 111.097,213.851 116.573,228.134 103.849,269.618 -15.199,49.536 -13.697,54.681 129.394,440.893 46.296,124.93 82.584,231.25 80.646,236.307 -1.938,5.019 -62.313,70.424 -134.155,145.334 -100.795,105.024 -142.291,159.335 -181.677,237.642 -45.731,90.98 -50.154,107.861 -42.637,162.533 13.233,96.325 5.504,106.2 -124.356,158.768 -100.078,40.475 -135.691,48.28 -249.866,54.756 l -133.141,7.531 -81.772,131.493 -81.746,131.524 -102.756,-8.33 c -99.324,-8.056 -104.441,-7.088 -152.843,28.209 -117.804,85.952 -237.566,191.831 -261.486,231.167 -44.74,73.574 -216.849,277.87 -240.364,285.323 -30.475,9.673 -182.459,-62.209 -321.796,-152.219 l -114.114,-73.734 -178.33,-25.333 -178.305,-25.379 -126.044,34.723 c -80.458,22.142 -215.408,77.705 -373.298,153.672 l -247.279,118.981 -117.627,-11.492 -117.658,-11.455 -128.046,-91.42 c -70.404,-50.266 -144.394,-97.574 -164.417,-105.148 -27.168,-10.235 -76.391,-8.742 -194.382,6.032 -153.29,19.144 -159.779,21.212 -217.097,69.289 -130.493,109.469 -85.06,99.271 -487.125,109.385 -198.935,4.982 -393.067,5.875 -431.444,1.866 -63.259,-6.513 -75.148,-12.947 -127.999,-69.284 -50.597,-53.992 -64.764,-62.122 -107.772,-61.962 -64.339,0.403 -76.777,9.306 -98.858,71.918 l -18.36,52.007 89.329,200.733 c 49.154,110.409 90.051,218.019 90.916,239.147 l 1.564,38.368 -196.553,7.561 c -136.185,5.266 -210.196,13.637 -240.963,27.319 -70.129,31.16 -175.69,38.003 -234.591,15.262 z m -2020.471,-860.983 c 4.368,-104.535 -5.045,-168.238 -40.853,-276.213 -50.577,-152.535 -83.08,-213.726 -352.02,-662.917 -396.568,-662.351 -582.832,-1098.875 -682.01,-1598.319 -44.524,-224.169 -45.053,-135.378 -5.054,856.443 36.774,911.814 101.407,1245.26 273.916,1412.807 61.263,59.493 123.507,86.489 322.937,139.985 228.817,61.357 286.851,86.202 374.518,160.35 67.816,57.347 75.934,61.028 90.45,41.157 8.785,-12.021 16.921,-45.001 18.116,-73.293 z m 2328.108,-76.29 c 138.767,-224.409 176.787,-308.708 194.601,-431.698 8.066,-55.811 20.638,-108.949 27.963,-118.142 7.286,-9.185 82.138,-57.183 166.352,-106.672 297.786,-174.959 391.797,-249.507 444.53,-352.389 47.417,-92.556 55.572,-143.383 69.98,-437.287 17.046,-347.805 57.454,-915.455 83.015,-1166.658 41.7,-409.731 100.895,-689.625 207.768,-982.47 21.3,-58.359 35.905,-108.992 32.428,-112.478 -11.612,-11.611 -71.887,53.708 -249.573,270.675 -525.503,641.544 -777.851,1197.663 -835.872,1841.918 -14.26,158.286 -24.109,193.778 -41.325,148.851 -21.515,-56.056 -35.528,-324.05 -27.816,-532.433 24.89,-673.923 198.763,-1552.509 444.022,-2243.719 32.008,-90.208 56.434,-169.284 54.288,-175.76 -2.157,-6.434 -51.861,52.771 -110.432,131.614 -299.367,402.809 -600.849,609.571 -887.913,608.958 -127.223,-0.398 -199.19,-18.41 -320.771,-80.815 -54.303,-27.85 -101.699,-47.713 -105.305,-44.071 -3.627,3.602 22.761,71.387 58.608,150.63 262.056,579.3 370.712,1094.173 371.616,1760.928 0.406,283.832 -9.568,418.924 -29.292,397.834 -5.672,-6.069 -16.888,-88.06 -24.888,-182.241 -46.086,-541.619 -208.044,-948.798 -542.147,-1363.22 -150.901,-187.177 -612.785,-631.794 -634.126,-610.468 -4.512,4.534 22.02,80.942 58.942,169.857 150.104,361.408 248.585,676.515 292.293,935.167 23.967,141.808 27.732,210.974 27.017,494.552 -0.405,181.35 -6.806,433.764 -14.098,560.928 l -13.275,231.214 44.484,110.357 c 144.546,358.455 345.253,518.561 684.981,546.485 l 114.138,9.351 8.559,77.496 c 10.765,97.619 31.309,174.471 64.042,239.472 55.844,110.929 254.018,424.861 267.8,424.21 8.07,-0.397 61.81,-76.849 119.406,-169.976 z m 898.458,-75.683 c 54.727,-54.712 94.938,-109.87 122.477,-167.99 45.735,-96.564 49.339,-148.535 30.115,-435.31 -16.838,-251.479 -23.623,-255.083 -83.597,-44.392 -26.196,91.985 -59.981,174.064 -99.198,240.923 -112.091,191.224 -133.728,245.418 -139.778,349.506 -4.555,78.189 -1.649,99.882 15.842,117.323 37.136,37.157 69.587,24.525 154.139,-60.06 z m 1106.475,-82.476 c 54.517,-27.438 207.052,-90.654 338.93,-140.472 313.657,-118.501 365.67,-147.4 479.198,-266.263 79.262,-82.926 106.269,-123.836 176.806,-267.669 132.723,-270.67 128.421,-240.154 130.15,-924.32 0.805,-324.779 8.683,-695.048 17.491,-824.275 8.808,-129.018 13.828,-248.855 11.122,-266.257 -2.906,-18.98 -24.568,47.427 -53.776,164.837 -68.91,277.021 -217.61,720.1 -318.111,947.991 -142.331,322.676 -270.014,532.236 -558.259,916.1 -247.531,329.679 -307.659,439.115 -335.194,610.104 -11.469,71.27 -9.574,100.047 6.608,100.047 3.248,0 50.498,-22.423 105.035,-49.823 z m -339.964,-579.871 c 489.082,-504.588 762.054,-1102.671 855.662,-1874.816 29.773,-245.456 20.372,-760.209 -18.403,-1008.129 -34.408,-220.165 -92.973,-463.116 -155.372,-644.75 -55.846,-162.527 -155.039,-382.443 -172.489,-382.443 -6.443,0 -15.048,133.75 -19.385,301.178 -16.905,652.436 -98.861,998.3 -393.371,1660.124 -129.914,291.963 -169.853,399.73 -193.493,522.158 -19.473,100.812 -23.732,265.038 -7.528,290.539 5.544,8.697 46.076,29.947 90.091,47.195 164.166,64.343 225.807,149.129 212.447,292.276 -10.072,107.9 -54.535,218.541 -186.143,463.233 -130.401,242.46 -162.711,313.811 -177.274,391.471 -12.937,69.044 -5.629,93.529 23.263,78.072 11.55,-6.194 75.454,-67.423 141.995,-136.108 z m -3522.619,-241.688 c 79.19,-166.656 110.738,-294.144 110.571,-446.682 -0.228,-135.414 -40.038,-420.167 -68.342,-487.961 -10.13,-24.238 -96.052,-163.947 -190.926,-310.372 -244.287,-377.182 -366.114,-616.854 -477.682,-939.731 -96.223,-278.481 -159.59,-564.613 -188.164,-849.645 -8.051,-80.179 -17.979,-160.071 -22.062,-177.548 -16.528,-70.218 -28.623,63.375 -36.73,405.801 -18.112,764.411 61.906,1334.369 256.911,1830.101 61.66,156.741 135.459,302.398 285.442,563.272 136.153,236.839 189.151,351.326 212.861,459.871 22.74,104.094 23.793,106.356 42.719,90.653 9.038,-7.524 42.992,-69.527 75.402,-137.759 z m -1941.294,-512.853 c -367.378,-833.619 -558.157,-1477.955 -611.437,-2064.99 -17.617,-194.22 -22.167,-218.826 -38.662,-208.628 -36.964,22.824 -137.089,308.109 -182.188,519.085 -40.23,188.189 -86.952,535.632 -78.039,580.19 11.402,57.026 135.568,308.91 217.058,440.322 98.589,158.978 217.425,314.989 445.479,584.848 103.619,122.546 224.53,267.146 268.695,321.257 44.174,54.068 83.113,95.554 86.548,92.111 3.417,-3.438 -44.931,-122.298 -107.454,-264.195 z m 7385.754,-58.237 c 109.482,-186.487 274.798,-428.058 463.33,-677.078 280.868,-370.958 317.179,-449.995 325.29,-708.648 5.588,-177.791 -15.863,-331.048 -93.229,-665.463 -56.729,-245.295 -80.245,-325.747 -92.893,-317.942 -5.625,3.485 -13.951,79.287 -18.502,168.485 -36.437,713.99 -179.928,1255.852 -494.433,1867.251 -102.31,198.912 -200.053,457.037 -173.059,457.037 6.007,0 43.589,-55.648 83.496,-123.642 z m -7290.88,-1642.592 40.339,-109.272 -30.728,-187.26 c -50.997,-310.859 -39.386,-580.229 36.857,-853.897 16.506,-59.251 76.543,-241.005 133.394,-403.818 56.863,-162.819 103.369,-298.315 103.369,-301.15 0,-30.671 -52.163,39.3 -211.223,283.341 -189.321,290.457 -309.864,509.246 -350.52,636.163 -55.639,173.621 -58.856,380.351 -8.705,559.026 49.361,175.922 203.224,500.749 232.547,490.951 7.893,-2.624 32.499,-53.948 54.67,-114.084 z m 7134.535,-522.688 c 217.967,-408.187 299.791,-621.551 310.098,-808.528 6.551,-119.109 5.356,-126.631 -32.178,-202.883 -21.455,-43.538 -101.592,-154.436 -178.097,-246.384 -76.49,-91.992 -157.774,-194.417 -180.602,-227.61 -22.837,-33.222 -43.641,-54.066 -46.189,-46.417 -2.574,7.689 24.314,107.286 59.746,221.293 183.174,589.62 173.559,885.304 -42.208,1297.701 -59.183,113.079 -63.016,138.247 -30.588,201.349 17.584,34.234 30.013,17.483 140.018,-188.521 z m -3581.289,-492.529 c 98.939,-254.606 169.829,-559.186 218.888,-940.465 22.655,-176.091 27.969,-284.065 28.917,-589.657 1.204,-384.196 -6.34,-480.842 -57.897,-741.064 -40.963,-206.652 -147.489,-514.348 -178.107,-514.348 -6.495,0 -8.722,9.993 -4.979,22.177 49.677,161.158 74.521,398.311 58.21,555.587 -17.111,165.083 -62.629,293.693 -208.396,588.892 -149.159,302.031 -182.165,401.677 -199.302,601.72 -17.216,201.022 -8.363,264.479 46.961,336.678 176.59,230.402 206.901,333.56 208.185,708.525 0.575,163.623 14.811,159.052 87.52,-28.045 z m -1877.334,-189.883 c 35.044,-71.077 79.847,-180.551 99.55,-243.321 33.088,-105.344 35.845,-129.75 35.845,-317.046 0,-237.276 -20.044,-330.325 -79.171,-367.842 -140.666,-89.236 -185.317,-197.621 -224.668,-545.181 -26.658,-235.587 -31.95,-265.332 -44.865,-252.099 -16.694,17.12 -86.804,260.274 -122.061,423.29 -38.667,178.918 -53.04,462.179 -31.57,622.802 20.11,150.558 38.528,216.926 149.097,537.541 52.92,153.423 98.524,286.895 101.346,296.569 9.696,33.148 50.623,-21.168 116.497,-154.713 z m 3627.995,85.309 c 21.406,-18.012 58.881,-74.797 83.255,-126.193 71.966,-151.601 103.518,-282.57 112.984,-468.733 4.614,-90.656 20.288,-256.181 34.835,-367.759 56.032,-429.925 7.39,-718.642 -188.029,-1115.95 -84.54,-171.879 -95.499,-176.812 -83.53,-37.875 5.393,62.683 9.82,222.386 9.82,354.929 0,230.481 -1.565,245.698 -36.037,350.884 -26.87,81.909 -59.974,144.719 -129.86,246.222 -118.98,172.815 -146.123,242.951 -154.276,398.64 -5.211,99.762 -0.59,146.262 26.613,267.514 58.63,261.279 135.341,448.818 206.478,504.795 44.018,34.637 70.62,33.184 117.747,-6.474 z m -2930.181,-1912.779 c 57.045,-29.506 140.772,-130.08 183.679,-220.612 34.662,-73.209 40.125,-98.543 40.085,-186.168 0,-92.635 -5.842,-116.068 -66.957,-270.024 -64.106,-161.596 -105.264,-307.86 -122.884,-436.965 -4.523,-33.101 -13.183,-60.216 -19.235,-60.216 -6.046,0 -17.174,32.824 -24.699,72.925 -7.543,40.108 -34.055,138.538 -58.944,218.746 -105.07,338.746 -96.561,285.246 -89.979,565.542 6.846,292.241 17.735,334.822 85.682,334.822 21.097,0 54.053,-8.139 73.252,-18.05 z"
   id="cachoeira_dourada_mg"
   inkscape:connector-curvature="0" /><path
   sodipodi:type="arc"
   style="fill:#217821;fill-opacity:1;fill-rule:nonzero;stroke:none"
   id="path3105"
   sodipodi:cx="32.706276"
   sodipodi:cy="80.156906"
   sodipodi:rx="10.826119"
   sodipodi:ry="11.167996"
   d="m 43.532395,80.156906 a 10.826119,11.167996 0 1 1 -21.652238,0 10.826119,11.167996 0 1 1 21.652238,0 z"
   transform="matrix(442.71269,0,0,442.71269,-7203.4759,-12785.989)" /><path
   transform="matrix(442.71269,0,0,442.71269,-7139.2654,-29801.788)"
   d="m 43.532395,80.156906 a 10.826119,11.167996 0 1 1 -21.652238,0 10.826119,11.167996 0 1 1 21.652238,0 z"
   sodipodi:ry="11.167996"
   sodipodi:rx="10.826119"
   sodipodi:cy="80.156906"
   sodipodi:cx="32.706276"
   id="path3107"
   style="fill:#ffcc00;fill-opacity:1;fill-rule:nonzero;stroke:none"
   sodipodi:type="arc" /><path
   sodipodi:type="arc"
   style="fill:#0088aa;fill-opacity:1;fill-rule:nonzero;stroke:none"
   id="path3109"
   sodipodi:cx="32.706276"
   sodipodi:cy="80.156906"
   sodipodi:rx="10.826119"
   sodipodi:ry="11.167996"
   d="m 43.532395,80.156906 a 10.826119,11.167996 0 1 1 -21.652238,0 10.826119,11.167996 0 1 1 21.652238,0 z"
   transform="matrix(442.71269,0,0,442.71269,9427.0615,-29737.578)" /><g
   style="font-size:21143.00976562px;font-style:normal;font-variant:normal;font-weight:normal;font-stretch:normal;text-align:start;line-height:125%;letter-spacing:0px;word-spacing:0px;writing-mode:lr-tb;text-anchor:start;fill:#cccccc;fill-opacity:1;stroke:none;font-family:AngsanaUPC;-inkscape-font-specification:AngsanaUPC"
   id="text3111"
   transform="matrix(1.5405661,0,0,1.5405661,-4821.7243,-15927.636)"><path
     d="m 28781.01,25884.173 c -106.685,705.457 -402.631,1293.909 -887.841,1765.359 -481.779,468.009 -1037.54,702.014 -1667.284,702.014 -812.136,0 -1469.413,-309.712 -1971.833,-929.136 -502.423,-619.423 -753.633,-1386.82 -753.633,-2302.193 0,-997.957 258.093,-1811.811 774.28,-2441.564 516.185,-633.183 1219.919,-949.777 2111.204,-949.783 805.247,0 1405.744,256.379 1801.492,769.118 395.738,512.751 593.609,1102.923 593.615,1770.52 l -4310.16,0 c 0,846.55 206.473,1553.725 619.424,2121.528 416.389,567.807 968.708,851.709 1656.96,851.708 843.1,0 1450.48,-497.258 1822.139,-1491.78 l 211.637,134.209 m -1424.676,-2007.966 c -58.505,-1108.076 -509.308,-1662.116 -1352.409,-1662.122 -412.952,0 -760.517,156.583 -1042.697,469.73 -282.184,309.717 -445.643,707.181 -490.378,1192.392 l 2885.484,0"
     id="path3136"
     inkscape:connector-curvature="0" /><path
     d="m 33075.684,26921.708 c -320.04,894.724 -844.829,1342.086 -1574.37,1342.086 -798.37,0 -1197.554,-557.481 -1197.553,-1672.445 l 0,-4196.598 -991.079,0 0,-221.961 c 819.016,-337.235 1453.925,-1104.632 1904.729,-2302.193 l 211.637,0 0,2049.262 1455.647,0 0,474.892 -1455.647,0 0,4046.904 c 0,688.25 206.472,1032.374 619.424,1032.373 351.004,0 605.656,-184.105 763.956,-552.32 l 263.256,0"
     id="path3138"
     inkscape:connector-curvature="0" /></g></svg>