<?xml version="1.0" encoding="UTF-8" standalone="no"?>
<svg
   xmlns:dc="http://purl.org/dc/elements/1.1/"
   xmlns:cc="http://creativecommons.org/ns#"
   xmlns:rdf="http://www.w3.org/1999/02/22-rdf-syntax-ns#"
   xmlns:svg="http://www.w3.org/2000/svg"
   xmlns="http://www.w3.org/2000/svg"
   xmlns:sodipodi="http://sodipodi.sourceforge.net/DTD/sodipodi-0.dtd"
   xmlns:inkscape="http://www.inkscape.org/namespaces/inkscape"
   height="24"
   id="Layer_1"
   version="1.2"
   viewBox="0 0 24 24"
   width="24"
   x="0px"
   xml:space="preserve"
   y="0px"
   inkscape:version="0.48.3.1 r9886"
   sodipodi:docname="time.svg"><metadata
     id="metadata23"><rdf:RDF><cc:Work
         rdf:about=""><dc:format>image/svg+xml</dc:format><dc:type
           rdf:resource="http://purl.org/dc/dcmitype/StillImage" /></cc:Work></rdf:RDF></metadata><defs
     id="defs21" /><sodipodi:namedview
     pagecolor="#ffffff"
     bordercolor="#666666"
     borderopacity="1"
     objecttolerance="10"
     gridtolerance="10"
     guidetolerance="10"
     inkscape:pageopacity="0"
     inkscape:pageshadow="2"
     inkscape:window-width="1366"
     inkscape:window-height="744"
     id="namedview19"
     showgrid="false"
     inkscape:zoom="19.666667"
     inkscape:cx="7.7902451"
     inkscape:cy="10.507205"
     inkscape:window-x="0"
     inkscape:window-y="24"
     inkscape:window-maximized="1"
     inkscape:current-layer="Layer_1" /><g
     id="g3000"
     transform="matrix(1.1111111,0,0,1.1111111,-1.1977399,6.4444456)"
     style="fill:#ffffff"><g
       transform="translate(0,-8)"
       id="g3"
       style="fill:#ffffff"><path
         inkscape:connector-curvature="0"
         id="path5"
         d="m 16,13 c 0,-0.55 -0.45,-1 -1,-1 h -3 c -0.55,0 -1,0.45 -1,1 0,0.55 0.45,1 1,1 h 3 c 0.55,0 1,-0.45 1,-1 z"
         style="fill:#ffffff" /></g><g
       transform="translate(0,-8)"
       id="g7"
       style="fill:#ffffff"><path
         inkscape:connector-curvature="0"
         id="path9"
         d="m 12,6 c 3.859,0 7,3.141 7,7 0,3.859 -3.141,7 -7,7 C 8.141,20 5,16.859 5,13 5,9.141 8.141,6 12,6 m 0,-2 c -4.971,0 -9,4.029 -9,9 0,4.971 4.029,9 9,9 4.971,0 9,-4.029 9,-9 0,-4.971 -4.029,-9 -9,-9 z"
         style="fill:#ffffff" /></g><g
       transform="translate(0,-8)"
       id="g11"
       style="fill:#ffffff"><path
         inkscape:connector-curvature="0"
         id="path13"
         d="M 13,10 C 13,9.45 12.55,9 12,9 11.45,9 11,9.45 11,10 v 3 c 0,0.55 0.45,1 1,1 0.55,0 1,-0.45 1,-1 v -3 z"
         style="fill:#ffffff" /></g><g
       transform="translate(0,-8)"
       id="g15"
       style="fill:#ffffff"><path
         inkscape:connector-curvature="0"
         id="path17"
         d="m 12,8 c 2.757,0 5,2.243 5,5 0,2.757 -2.243,5 -5,5 C 9.243,18 7,15.757 7,13 7,10.243 9.243,8 12,8 m 0,-1 c -3.312,0 -6,2.686 -6,6 0,3.312 2.688,6 6,6 3.312,0 6,-2.688 6,-6 0,-3.314 -2.688,-6 -6,-6 z"
         style="fill:#ffffff" /></g></g></svg>