<?xml version="1.0" encoding="UTF-8" standalone="no"?>
<svg
   xmlns:dc="http://purl.org/dc/elements/1.1/"
   xmlns:cc="http://creativecommons.org/ns#"
   xmlns:rdf="http://www.w3.org/1999/02/22-rdf-syntax-ns#"
   xmlns:svg="http://www.w3.org/2000/svg"
   xmlns="http://www.w3.org/2000/svg"
   xmlns:sodipodi="http://sodipodi.sourceforge.net/DTD/sodipodi-0.dtd"
   xmlns:inkscape="http://www.inkscape.org/namespaces/inkscape"
   enable-background="new 0 0 56.693 56.693"
   height="32"
   id="Layer_1"
   version="1.1"
   viewBox="0 0 32 32"
   width="32"
   x="0px"
   xml:space="preserve"
   y="0px"
   inkscape:version="0.48.3.1 r9886"
   sodipodi:docname="twitter.svg"><metadata
     id="metadata9"><rdf:RDF><cc:Work
         rdf:about=""><dc:format>image/svg+xml</dc:format><dc:type
           rdf:resource="http://purl.org/dc/dcmitype/StillImage" /><dc:title></dc:title></cc:Work></rdf:RDF></metadata><defs
     id="defs7" /><sodipodi:namedview
     pagecolor="#ffffff"
     bordercolor="#666666"
     borderopacity="1"
     objecttolerance="10"
     gridtolerance="10"
     guidetolerance="10"
     inkscape:pageopacity="0"
     inkscape:pageshadow="2"
     inkscape:window-width="1366"
     inkscape:window-height="744"
     id="namedview5"
     showgrid="false"
     inkscape:zoom="11.774095"
     inkscape:cx="13.89181"
     inkscape:cy="21.983227"
     inkscape:window-x="0"
     inkscape:window-y="24"
     inkscape:window-maximized="1"
     inkscape:current-layer="Layer_1" /><path
     d="m 16.117365,1.017595 c -8.2055081,0 -14.8573992,6.6530979 -14.8573992,14.857399 0,8.205506 6.6518911,14.856191 14.8573992,14.856191 8.205506,0 14.856191,-6.650685 14.856191,-14.856191 0,-8.2043011 -6.651287,-14.857399 -14.856191,-14.857399 z M 23.60127,12.87938 c 0.0078,0.16049 0.01084,0.321583 0.01084,0.484487 0,4.948041 -3.766087,10.65268 -10.652679,10.65268 -2.114125,0 -4.0828436,-0.619637 -5.7396325,-1.681527 0.2932263,0.03439 0.5906759,0.0519 0.8929523,0.0519 1.7545311,0 3.3690862,-0.598519 4.6499892,-1.602487 -1.638085,-0.03077 -3.0203517,-1.113778 -3.4969944,-2.601025 0.2280646,0.04465 0.462766,0.06696 0.7041044,0.06696 0.341495,0 0.672127,-0.04464 0.98647,-0.130926 -1.7135018,-0.343907 -3.0040593,-1.858305 -3.0040593,-3.670757 0,-0.01629 0,-0.03197 6.034e-4,-0.04827 0.5043979,0.280555 1.0817998,0.44889 1.6960058,0.4688 -1.0051741,-0.672731 -1.6658385,-1.817279 -1.6658385,-3.116887 0,-0.686005 0.1846239,-1.329775 0.5068106,-1.8824395 1.846843,2.2649605 4.605945,3.7558305 7.718004,3.9114925 -0.06395,-0.273315 -0.09714,-0.559905 -0.09714,-0.853131 0,-2.067064 1.676095,-3.7437624 3.744366,-3.7437624 1.076973,0 2.049567,0.4549223 2.732555,1.1819544 0.853131,-0.167127 1.654375,-0.4796599 2.377787,-0.908639 -0.280556,0.874852 -0.873645,1.60852 -1.647136,2.071287 0.758406,-0.09051 1.480009,-0.292019 2.15093,-0.589469 -0.500777,0.752373 -1.136102,1.41183 -1.86796,1.939758 z"
     id="path3"
     inkscape:connector-curvature="0" /></svg>